<svg xmlns="http://www.w3.org/2000/svg" viewBox="0 0 694.12 628.04"><title>Fichier 2</title><g id="af38d5f7-3774-4a69-9d31-4ed766285500" data-name="Calque 2"><g id="ab8172c3-599e-4a1e-ad3a-25aca0b38ecf" data-name="Calque 1"><path d="M501.66,61.28,347.08,0,192.47,61.28,0,213.91l34,47.87V628h60.7v-45.1h86.63V628H512.8v-45.1h86.59V628h60.74V261.74l34-47.83ZM79.14,612.45H49.63V582.94H79.14ZM49.63,567.34V492.69H235.74V522.2H202.56v45.14Zm0-90.24V262.84L77.5,238.47V477.1ZM192.27,214.77v30.72H93.1V224.82l11.5-10Zm-69.82-15.6,69.86-61.09v61.09Zm69.86,61.91v30.76H93.1V261.08Zm0,46.35v30.72H93.1V307.43Zm0,46.32v30.72H93.1V353.75Zm0,46.31v30.72H93.1V400.06Zm0,46.32V477.1H93.1V446.38ZM331.45,307.43v30.72H251.33V307.43Zm-80.12-15.59V261.08h80.12v30.76Zm80.12,61.91v30.72H251.33V353.75Zm0,46.31v30.72H251.33V400.06Zm0,46.32V477.1H251.33V446.38Zm111.34,46.31V522.2H251.33V492.69ZM347,477.1v-216h95.75v216ZM251.33,245.49V214.77H442.79v30.72Zm0-46.32V168.45H442.79v30.72Zm0-46.31V122.14H442.79v30.72Zm-9.08-46.31L347.08,60.74l104.83,45.81ZM476,537.79v29.55H218.16V537.79ZM235.74,477.1H207.9V245.49h0V207h0V124.44l6.67-5.81,21.17-9.24ZM497.21,612.45H197V582.94H497.21Zm147.32,0H615V582.94h29.55Zm0-45.11h-153V522.2H458.38V492.69H644.53Zm-144.36-121h99.22V477.1H500.17Zm0-15.6V400.06h99.22v30.72Zm0-46.31V353.75h99.22v30.72Zm0-46.32V307.43h99.22v30.72Zm0-46.31V261.08h99.22v30.76Zm0-46.35V214.77h89.36l9.86,8.65v22.07Zm0-46.32V136.64l71.5,62.53ZM458.38,477.1V109.39l21.17,9.24,5,4.41V477.1Zm186.15,0H615V237l29.55,25.81Zm6.4-229.35L615,216.33l-19.61-17.16L488,105.3,347.08,43.74,206.15,105.3,98.75,199.17,77.5,217.73v0l-34.31,30L21.29,217l179.05-142L347.08,16.76l146.7,58.17L672.84,217Z"/></g></g></svg>