<svg xmlns="http://www.w3.org/2000/svg" width="204" height="171" fill="none" viewBox="0 0 204 171">
  <path fill="#BF826A" d="m133 0-11.004 27.39-17.837 31.165-6.69 11.073L66.891 123H0L71.495 0H133Z"/>
  <path fill="#D59274" d="M204 123h-52.916l-2.929-23.807a10.493 10.493 0 0 0 4.342 1.791 10.53 10.53 0 0 0 4.692-.279 10.476 10.476 0 0 0 4.095-2.293 10.376 10.376 0 0 0 2.671-3.842 10.316 10.316 0 0 0-.693-9.074 10.419 10.419 0 0 0-3.224-3.398 10.505 10.505 0 0 0-4.397-1.652l9.064-9.004h-11.301c0-4.135-1.655-8.1-4.598-11.025a15.757 15.757 0 0 0-11.1-4.568h-23.631a15.544 15.544 0 0 0 4.985 11.4 15.751 15.751 0 0 0 10.717 4.193h1.638a12.019 12.019 0 0 0-6.498 1.898 11.898 11.898 0 0 0-4.419 5.098L100.301 123H61l31.291-53.823 7.742-13.322L117.84 25.22 132.5 0 204 123Z"/>
  <path fill="#000" d="M0 144.982c0-.213.071-.42.083-.627.012-.207.02-.42.047-.624.027-.204 0-.429.03-.633.03-.204.11-.409.162-.61.054-.201.199-.375.267-.574.068-.198 0-.449.08-.642.08-.192.245-.352.343-.538.097-.186.15-.396.26-.574.11-.177.207-.373.328-.529.122-.157.296-.296.43-.468.133-.171.295-.296.44-.449.145-.154.296-.296.438-.45.142-.154.272-.296.423-.42.15-.124.373-.172.53-.296.156-.124.257-.322.423-.432.165-.109.355-.18.526-.278.172-.098.382-.127.56-.213.177-.086.357-.16.54-.237.184-.077.335-.224.524-.295.19-.071.364-.166.556-.219.193-.054.403-.024.592-.065.19-.042.382-.11.592-.142.21-.033.393-.054.591-.071.199-.018.397.026.592.017.195-.009.39-.1.592-.1.2 0 .396.044.591.056.196.012.4 0 .592 0 .192 0 .388.106.592.136.204.03.393.047.591.089.199.041.409 0 .592.059s.39.095.577.157c.186.062.296.183.49.26.098-.142-.132-.275 0-.358.273-.151.335.071.646.071.31 0 .296-.101.621-.101s.296.142.621.142c.326 0 .296-.147.621-.147.326 0 .311.082.625.082.313 0 .352-.18.574.039.222.219.097.263.097.574 0 .31-.035.31-.035.621s.018.311.018.621c0 .311-.03.311-.03.621 0 .311-.018.296-.018.622 0 .325.083.31.083.621s-.038.311-.038.621c0 .311-.08.314-.08.624v.622c0 .31.31.446.088.668-.221.222-.355-.068-.665-.068-.31 0-.31.074-.622.074-.31 0-.31-.124-.62-.124h-.622c-.325 0-.313.021-.624.021-.31 0-.453.295-.654.071-.201-.225 0-.391 0-.755s.136-.376.071-.733c-.157-.122-.314-.296-.48-.388-.165-.092-.402-.098-.576-.186-.175-.089-.296-.296-.482-.382-.187-.086-.4-.068-.592-.121-.19-.06-.382-.11-.577-.148a5.839 5.839 0 0 0-.591 0 6.315 6.315 0 0 0-.592-.027c-.204 0-.42.045-.627.062-.207.018-.438-.083-.645-.044-.207.038-.382.216-.592.275a6.205 6.205 0 0 0-.636.095 5.39 5.39 0 0 0-.574.296 5.877 5.877 0 0 0-.544.334c-.178.118-.35.246-.515.381-.162.142-.21.403-.349.563a4.092 4.092 0 0 0-.376.508 5.365 5.365 0 0 0-.384.515 5.08 5.08 0 0 0-.296.592 5.225 5.225 0 0 0-.124.636 5.443 5.443 0 0 0-.077.639 6.396 6.396 0 0 0-.053.642c0 .219.059.432.077.639.002.214.014.428.038.642.03.213.074.425.13.633.086.203.185.401.296.591.072.203.157.401.254.592.12.179.252.35.394.512.116.174.243.341.379.5.147.143.302.278.464.405.163.127.405.136.592.243.17.108.347.207.53.295.178.095.362.18.55.255.193.073.39.136.591.186.198.039.408-.02.615 0 .207.021.394.136.592.136.198 0 .42-.047.624-.062.204-.015.426.024.627 0 .202-.023.412-.103.61-.157.198-.053.387-.162.591-.236.205-.074.406-.122.592-.216.177-.113.346-.235.509-.367.171-.112.296-.228.456-.358.065-.337 0-.331 0-.674 0-.344-.178-.453.053-.708.23-.254.331 0 .642 0 .31 0 .296.069.62.069.326 0 .311-.113.622-.113.31 0 .31.024.621.024s.314.038.625.038c.31 0 .37-.192.591.024.222.216.039.272.039.592 0 .319-.056.295-.056.591s.053.296.053.61v.609c0 .296.11.32.053.618-.142.154-.367.264-.509.406a5.63 5.63 0 0 1-.461.405c-.166.133-.222.376-.379.503s-.387.177-.55.296c-.163.118-.296.295-.465.414-.168.118-.402.13-.591.228-.19.097-.329.26-.512.349-.184.088-.393.127-.592.201-.198.074-.402.091-.591.154-.19.062-.367.195-.568.242-.202.048-.394.119-.592.154-.198.036-.405.074-.612.098-.207.023-.409 0-.616.026a4.718 4.718 0 0 1-.615.045c-.207 0-.405-.092-.592-.101-.186-.009-.41.068-.61.05-.197-.017-.393-.124-.59-.153-.199-.03-.409-.018-.592-.057-.184-.038-.385-.133-.577-.183-.193-.05-.417 0-.61-.074-.192-.074-.334-.26-.52-.334-.187-.074-.435 0-.616-.095-.18-.095-.346-.216-.523-.314-.178-.097-.323-.245-.494-.352-.172-.106-.367-.174-.53-.295-.163-.122-.269-.296-.426-.438a15.146 15.146 0 0 1-.438-.411c-.142-.14-.322-.264-.464-.412-.142-.148-.31-.281-.44-.44-.131-.16-.208-.364-.33-.533-.12-.169-.254-.325-.36-.503-.107-.177-.287-.337-.382-.532-.094-.196-.171-.379-.251-.568-.08-.19-.175-.379-.24-.577-.065-.198-.062-.411-.112-.616-.05-.204-.154-.387-.193-.591-.038-.204-.038-.411-.062-.621-.023-.21-.02-.412-.032-.622-.012-.21-.086-.411-.086-.621Zm19.525-.065c0-.213.07-.417.082-.624.012-.207.021-.414.048-.619.026-.204 0-.426.03-.627.029-.201.109-.405.162-.606.053-.201.198-.373.263-.571.065-.198 0-.447.08-.636s.249-.346.343-.533c.095-.186.151-.393.26-.571.11-.177.205-.369.326-.538.121-.169.296-.296.426-.464.13-.169.296-.296.44-.444.146-.148.297-.296.436-.447.139-.151.272-.296.423-.423.15-.127.37-.168.53-.296.159-.127.257-.325.422-.432.166-.106.358-.18.53-.278.171-.097.381-.124.559-.21a9.31 9.31 0 0 1 .541-.233c.184-.074.338-.225.527-.296.19-.071.367-.166.559-.219.192-.053.402-.021.592-.062.189-.042.381-.11.591-.139.21-.03.39-.054.592-.074.201-.021.396.029.592.02.195-.008.39-.1.591-.1.201 0 .4.044.592.056.192.012.402 0 .592 0 .189 0 .39.107.591.136.201.03.397.047.592.089.195.041.408 0 .592.056.183.056.39.098.576.16.187.062.367.168.55.242.184.074.367.16.548.246.18.086.32.246.491.343.172.098.393.116.562.225.169.109.249.337.408.456.16.118.406.124.56.254.153.13.245.319.39.458.145.14.257.332.4.48.141.148.37.233.502.39.133.157.234.349.355.518.121.169.252.337.361.512.11.174.187.375.281.559.095.183.172.381.252.571.08.189.233.361.295.556.063.195.092.411.145.612.054.201.021.42.06.627.038.208.076.406.1.613.024.207.151.402.163.612.012.21-.068.42-.068.63 0 .21.068.423.056.627-.012.205-.154.406-.177.61-.024.204-.048.414-.086.615-.039.201-.065.411-.119.61-.053.198-.032.428-.097.624a8.51 8.51 0 0 1-.225.591c-.083.199-.234.349-.331.536-.098.186-.222.349-.332.526-.11.178-.118.42-.242.592-.125.172-.364.243-.497.405-.133.163-.213.358-.358.512a5.537 5.537 0 0 1-.453.429c-.157.133-.248.323-.4.45-.15.127-.295.251-.47.37-.174.118-.295.263-.473.369-.177.107-.405.101-.592.199-.186.097-.295.295-.467.39-.172.095-.414.05-.592.124a7.656 7.656 0 0 1-.556.21c-.19.062-.375.113-.568.163-.192.05-.384.074-.591.115-.207.042-.361.222-.557.255-.195.032-.396.068-.591.086-.195.017-.403-.045-.592-.036-.19.009-.396-.038-.592-.038-.195 0-.399.035-.591.026-.193-.009-.4 0-.592-.029-.192-.03-.393-.065-.591-.095-.199-.03-.403-.018-.592-.056-.19-.039-.379-.136-.568-.187-.19-.05-.376-.133-.562-.195-.187-.062-.397-.074-.592-.148-.195-.074-.346-.201-.524-.296-.177-.094-.366-.156-.538-.254-.171-.098-.296-.263-.467-.373a8.276 8.276 0 0 1-.486-.34c-.16-.118-.393-.136-.547-.266-.154-.13-.296-.263-.444-.4-.147-.136-.278-.319-.417-.467-.139-.148-.26-.331-.39-.488-.13-.157-.334-.275-.456-.441-.121-.166-.148-.405-.257-.592-.11-.186-.243-.337-.337-.523-.095-.186-.122-.399-.204-.592-.083-.192-.175-.373-.243-.571-.068-.198-.172-.381-.225-.591-.053-.21-.056-.412-.095-.619-.038-.207-.133-.396-.16-.606-.026-.21-.085-.411-.097-.621-.012-.21.042-.379.042-.589Zm4.372 0c0 .222-.056.441-.036.654.021.213.063.438.104.648.041.21.163.405.228.612.059.208.13.413.213.612.064.211.14.417.228.619.112.183.36.275.494.449.133.175.21.385.36.545.16.141.326.273.5.396.165.132.34.251.521.358.164.134.337.256.518.367.185.105.377.199.574.281.201.068.407.123.615.165.21.035.42.058.633.069.21.055.422.099.636.133.216 0 .423-.125.633-.145.426-.031.85-.088 1.27-.172a5.43 5.43 0 0 0 .59-.245c.18-.122.351-.256.513-.4.167-.13.327-.269.479-.417.178-.118.35-.245.515-.382.142-.164.276-.335.399-.514.132-.172.256-.351.37-.536.13-.176.25-.359.36-.547.063-.21.114-.423.155-.639a6.61 6.61 0 0 0 .204-.615c.041-.21.041-.429.062-.648.02-.219.092-.426.092-.648 0-.222-.027-.441-.048-.654a5.933 5.933 0 0 0-.18-.63 5.426 5.426 0 0 0-.178-.615 5.357 5.357 0 0 0-.2-.616 5.696 5.696 0 0 0-.297-.571 6.388 6.388 0 0 0-.296-.591 6.48 6.48 0 0 0-.5-.429c-.147-.157-.207-.405-.363-.541-.157-.137-.423-.154-.592-.273a4.84 4.84 0 0 0-1.092-.662 5.576 5.576 0 0 0-.645-.065 5.277 5.277 0 0 0-.62-.133 5.625 5.625 0 0 0-.637-.018c-.219 0-.432-.018-.639 0a5.87 5.87 0 0 0-.633.086 5.52 5.52 0 0 0-.592.254c-.201.06-.399.132-.591.216-.203.073-.4.157-.592.254a5.784 5.784 0 0 0-.509.397c-.156.136-.236.361-.387.517-.151.157-.355.27-.485.438-.11.187-.209.379-.296.577-.113.189-.326.323-.414.521a5.28 5.28 0 0 0-.231.618c-.06.21-.11.424-.148.639-.041.21 0 .438 0 .657 0 .219-.062.414-.062.636l-.003-.012Zm17.285.065c0-.213.071-.42.083-.627.012-.207.02-.42.047-.624.027-.204 0-.429.03-.633.03-.205.11-.409.163-.61.053-.201.198-.376.266-.574.068-.198 0-.449.08-.642.08-.192.245-.352.343-.538.097-.186.15-.396.26-.574.11-.177.204-.373.328-.544.125-.172.296-.296.43-.468.133-.171.295-.296.44-.449.145-.154.296-.296.438-.45.142-.154.272-.296.423-.42.151-.124.373-.172.53-.296.156-.124.257-.322.423-.432.165-.109.355-.18.526-.278.172-.098.382-.127.56-.213.177-.086.357-.16.54-.237.184-.076.335-.224.524-.295.19-.071.364-.166.556-.219.193-.054.403-.024.592-.065.19-.042.382-.11.577-.142.195-.033.393-.054.592-.071.198-.018.396.026.591.017.196-.008.39-.1.592-.1.201 0 .396.044.592.056.195.012.399 0 .591 0 .193 0 .388.107.592.136.204.03.393.047.592.089.198.041.408 0 .591.059.184.059.39.095.577.157.186.062.296.183.491.26.098-.142-.133-.275.018-.358.27-.151.331.071.642.071.31 0 .31-.1.621-.1.31 0 .296.142.621.142.326 0 .296-.148.622-.148.325 0 .31.083.624.083.313 0 .352-.181.574.038.222.219.097.263.097.574 0 .31-.035.31-.035.621s.018.311.018.621c0 .311-.03.311-.03.622 0 .31-.018.295-.018.621 0 .325.083.31.083.621s-.038.311-.038.621c0 .311-.08.314-.08.624v.622c0 .31.296.446.086.668-.21.222-.355-.068-.666-.068-.31 0-.31.074-.621.074s-.296-.124-.622-.124h-.62c-.326 0-.314.021-.625.021-.31 0-.453.295-.654.071-.2-.225 0-.391 0-.755s.136-.375.071-.733c-.157-.122-.313-.296-.479-.388-.166-.092-.402-.098-.577-.186-.174-.089-.296-.296-.482-.382-.186-.086-.4-.068-.592-.121a5.243 5.243 0 0 0-.591-.148 5.837 5.837 0 0 0-.592 0 6.317 6.317 0 0 0-.592-.027c-.204 0-.42.045-.627.062-.207.018-.438-.082-.645-.044-.207.039-.381.216-.591.275a6.488 6.488 0 0 0-.636.095 5.382 5.382 0 0 0-.574.296c-.18.103-.37.21-.545.334a6 6 0 0 0-.514.382c-.163.142-.21.402-.35.562a4.32 4.32 0 0 0-.375.508 5.376 5.376 0 0 0-.385.515 5.09 5.09 0 0 0-.296.592 5.272 5.272 0 0 0-.124.636 5.446 5.446 0 0 0-.077.639 6.381 6.381 0 0 0-.053.642c0 .219.06.432.077.639.002.214.015.429.038.642.03.213.074.425.13.633.088.202.187.4.296.591.122.415.344.794.648 1.101.117.183.244.359.382.527.147.143.302.278.464.405.163.127.406.136.592.242.17.109.348.208.53.296.178.095.362.179.55.255.193.073.39.135.591.186.199.038.409-.021.616 0 .207.021.393.136.591.136.199 0 .42-.047.624-.062.205-.015.426.024.628 0 .2-.024.41-.104.61-.157.197-.053.387-.163.59-.237.205-.073.406-.121.592-.215a5.58 5.58 0 0 0 .51-.367 5.83 5.83 0 0 0 .455-.358c.068-.337 0-.332 0-.675s-.178-.452.053-.707c.23-.254.331 0 .642 0 .31 0 .296.068.621.068.326 0 .296-.112.621-.112.326 0 .311.024.622.024.31 0 .313.038.624.038.31 0 .37-.192.592.024.221.216.038.272.038.591 0 .32-.056.296-.056.592s.053.296.053.609v.61c0 .296.11.319.053.618-.142.154-.367.263-.508.405a5.622 5.622 0 0 1-.462.406c-.166.133-.222.375-.379.503-.156.127-.387.177-.55.295-.163.119-.296.296-.464.415-.169.118-.403.13-.592.227-.19.098-.328.261-.512.349-.183.089-.393.128-.591.202-.199.073-.403.091-.592.153-.19.063-.367.196-.565.243-.198.047-.396.118-.592.154-.195.035-.405.074-.612.097-.207.024-.408 0-.615.027a4.714 4.714 0 0 1-.616.044c-.207 0-.405-.091-.591-.1-.187-.009-.412.068-.61.05-.198-.018-.393-.124-.592-.154-.198-.029-.405-.017-.591-.056-.187-.038-.385-.133-.577-.183-.192-.051-.417 0-.61-.074-.192-.074-.334-.261-.52-.335-.186-.074-.435 0-.615-.094-.18-.095-.346-.216-.524-.314-.177-.097-.322-.245-.494-.352-.172-.106-.367-.174-.53-.296-.162-.121-.269-.296-.423-.438-.153-.142-.295-.272-.44-.411-.145-.139-.323-.263-.465-.411-.142-.148-.31-.281-.44-.441-.13-.159-.208-.364-.329-.532-.121-.169-.254-.326-.36-.503-.107-.178-.235-.343-.33-.53-.094-.186-.17-.378-.25-.568-.08-.189-.175-.378-.24-.576-.065-.199-.063-.412-.113-.616-.05-.204-.154-.387-.192-.591-.039-.205-.039-.412-.062-.619-.024-.207-.02-.411-.033-.621-.011-.21-.127-.426-.127-.636Zm19.528-.065c0-.213.07-.417.082-.624.012-.207.021-.414.048-.619.026-.204 0-.426.03-.627.029-.201.109-.405.162-.606.053-.201.198-.373.263-.571.065-.198 0-.447.08-.636s.249-.346.343-.533c.095-.186.151-.393.26-.571.11-.177.205-.369.326-.538.121-.169.296-.296.426-.464.13-.169.296-.296.438-.444.142-.148.296-.296.438-.447.142-.151.272-.296.423-.423.15-.127.37-.168.53-.296.16-.127.257-.325.422-.432.166-.106.358-.18.53-.278.172-.097.382-.124.559-.21.178-.085.358-.159.541-.233.184-.074.338-.225.527-.296.19-.071.367-.166.559-.219.192-.053.402-.021.592-.062.189-.042.381-.11.591-.139.21-.03.39-.054.592-.074.201-.021.396.029.592.02.195-.008.39-.1.591-.1.201 0 .4.044.592.056.192.012.402 0 .592 0 .189 0 .387.107.591.136.204.03.397.047.592.089.195.041.408 0 .592.056.183.056.39.098.576.16.187.062.367.168.55.242.184.074.368.16.548.246.18.086.317.246.491.343.175.098.394.116.562.225.169.109.249.337.408.456.16.118.406.124.56.254.153.13.245.319.39.458.145.14.257.332.4.48.141.148.37.233.502.39.133.157.234.349.355.518.121.169.252.337.361.512.11.174.187.375.281.559.095.183.169.381.252.571.083.189.233.361.296.556.062.195.091.411.144.612.054.201.021.42.06.627.038.208.077.406.1.613.024.207.151.402.163.612.012.21-.068.42-.068.63 0 .21.068.423.056.627-.012.205-.154.406-.177.61-.024.204-.05.414-.086.615-.036.201-.065.411-.119.61-.053.198-.032.428-.097.624a8.613 8.613 0 0 1-.225.591c-.083.199-.234.349-.331.536-.098.186-.222.349-.332.526-.11.178-.118.42-.242.592s-.364.243-.497.405c-.133.163-.213.358-.358.512a5.137 5.137 0 0 1-.456.429c-.16.133-.245.323-.396.45-.151.127-.314.251-.47.37-.157.118-.296.263-.474.369-.177.107-.405.101-.591.199-.187.097-.296.295-.468.39-.171.095-.414.05-.592.124a7.638 7.638 0 0 1-.556.21c-.19.062-.376.113-.568.163-.192.05-.384.074-.591.115-.207.042-.361.222-.56.255-.198.032-.393.068-.591.086-.198.017-.403-.045-.592-.036-.19.009-.393-.038-.591-.038-.199 0-.4.035-.592.026-.192-.009-.4 0-.592-.029-.192-.03-.393-.065-.591-.095-.199-.03-.403-.018-.592-.056-.19-.039-.379-.136-.568-.187-.19-.05-.376-.133-.562-.195-.187-.062-.397-.074-.592-.148-.195-.074-.346-.201-.523-.296-.178-.094-.367-.156-.539-.254-.171-.098-.296-.263-.467-.373a8.276 8.276 0 0 1-.485-.34c-.16-.118-.394-.136-.548-.266-.154-.13-.296-.263-.443-.4-.148-.136-.278-.319-.417-.467-.14-.148-.26-.331-.391-.488-.13-.157-.334-.275-.456-.441-.12-.166-.148-.405-.257-.592-.11-.186-.243-.337-.34-.523-.098-.186-.118-.399-.201-.592-.083-.192-.175-.373-.243-.571-.068-.198-.171-.381-.225-.591-.053-.21-.056-.412-.094-.619-.039-.207-.134-.396-.16-.606-.027-.21-.086-.411-.098-.621-.012-.21.045-.379.045-.589Zm4.372 0c0 .222-.056.441-.036.654.021.213.063.438.104.648.041.21.163.405.228.612.059.208.13.413.213.612.063.211.139.418.228.619.112.183.36.275.494.449.133.175.21.385.36.545.16.141.326.273.5.396.165.131.338.251.518.358.166.133.34.256.52.367.186.105.378.199.575.281.201.068.407.123.615.165.21.035.42.058.633.069.21.055.422.099.636.133.216 0 .423-.125.633-.145.426-.031.85-.088 1.27-.172a5.43 5.43 0 0 0 .59-.245c.18-.122.351-.256.513-.4.167-.13.327-.269.479-.417.178-.118.35-.246.515-.382a5.84 5.84 0 0 0 .4-.514c.131-.172.255-.351.369-.536.13-.176.25-.359.36-.547a7.76 7.76 0 0 1 .359-1.254c.041-.21.038-.429.062-.648.023-.219.091-.426.091-.648 0-.222-.026-.441-.047-.654a5.91 5.91 0 0 0-.18-.63 5.406 5.406 0 0 0-.178-.615 5.357 5.357 0 0 0-.2-.616 5.674 5.674 0 0 0-.297-.571 6.389 6.389 0 0 0-.296-.591 6.497 6.497 0 0 0-.5-.429c-.147-.157-.207-.405-.363-.541-.157-.137-.423-.154-.592-.273a4.893 4.893 0 0 0-.506-.393 5.276 5.276 0 0 0-.568-.296 5.579 5.579 0 0 0-.645-.065 5.487 5.487 0 0 0-.621-.133 5.626 5.626 0 0 0-.636-.018c-.219 0-.432-.018-.639 0a6.132 6.132 0 0 0-.633.086 5.52 5.52 0 0 0-.592.254c-.201.06-.399.132-.591.216-.203.073-.4.158-.592.255a5.758 5.758 0 0 0-.509.396c-.157.136-.237.361-.387.518-.151.157-.355.269-.486.438-.11.186-.208.379-.295.576-.113.19-.326.323-.415.521a5.46 5.46 0 0 0-.23.618c-.062.21-.111.424-.148.639-.042.21 0 .438 0 .657 0 .219-.083.441-.083.663v-.012Zm22.924 9.209c-.296 0-.296-.065-.613-.065h-.615c-.32 0-.296.065-.612.065-.317 0-.296-.024-.616-.024s-.296-.089-.612-.089c-.317 0-.296.154-.612.154-.317 0-.296-.083-.616-.083s-.296.054-.612.054c-.317 0-.296.026-.615.026-.32 0-.406.157-.625-.059-.219-.216.027-.296.027-.606v-.592c0-.296-.036-.296-.036-.592 0-.295.101-.295.101-.591s-.112-.296-.112-.592-.18-.393.035-.592c.216-.198.32.074.64.074h.641c.32 0 .402.137.636-.085.234-.222-.05-.296-.05-.592s.08-.296.08-.612c0-.317-.036-.296-.036-.607v-.612c0-.317.06-.296.06-.61 0-.313-.087-.295-.087-.609s.042-.296.042-.609c0-.314-.033-.296-.033-.61 0-.313.063-.296.063-.609 0-.314-.018-.296-.018-.613 0-.316-.086-.295-.086-.609s-.015-.296-.015-.609c0-.314.036-.296.036-.613v-.618c0-.296.077-.296.077-.609 0-.314-.101-.296-.101-.613 0-.316.142-.296.142-.612 0-.317.095-.346-.124-.556-.22-.21-.27-.062-.592-.062-.322 0-.32-.06-.639-.06-.32 0-.44.32-.674.104-.234-.216.017-.334.017-.633s-.014-.296-.014-.592.03-.296.03-.591c0-.296.014-.296.014-.592s-.08-.296-.08-.592-.169-.408.044-.618c.213-.21.326.071.628.071h.591c.296 0 .296-.106.607-.106.31 0 .296.082.591.082.296 0 .296-.074.607-.074.31 0 .296.125.591.125h.592c.296 0 .296-.021.607-.021.31 0 .295-.083.606-.083h.592c.295 0 .295.074.606.074.31 0 .296.03.607.03.31 0 .295-.128.606-.128.31 0 .296.148.592.148.295 0 .295-.071.606-.071.201 0 .4.018.592.024.192.006.405-.059.591-.05l.592.038c.201.018.405 0 .592.024.186.023.381.18.574.21.192.029.42-.062.61-.021.188.042.363.213.55.26.186.048.384.107.567.169.184.062.37.148.548.225.176.088.347.187.511.296.178.1.426.086.592.201.176.128.342.269.497.423.132.175.252.359.358.55.193.384.39.765.592 1.145.07.198.144.399.198.612.053.213.068.418.1.636.033.219.098.418.113.639.015.222.05.361.05.598s-.03.402-.041.592c-.012.189.032.411 0 .591-.033.181-.11.394-.151.592-.042.198-.071.399-.13.592a5.328 5.328 0 0 1-.296.529c-.08.18-.171.355-.272.524-.104.171-.11.411-.231.568a4.423 4.423 0 0 1-.408.446 4.852 4.852 0 0 1-.48.367 4.534 4.534 0 0 1-.514.311c-.169.098-.296.272-.491.358-.196.086-.43.103-.622.174.086.296.216.231.394.474.177.242.121.281.296.523.174.243.195.231.375.474.18.242.216.213.394.455.177.243.145.269.322.512.178.243.13.296.403.438.272.142.322-.045.65-.045h.66c.328 0 .331.045.663.045.331 0 .423-.198.668.021.246.218-.065.295-.065.606s.113.296.113.592c0 .295-.024.295-.024.591s-.038.296-.038.592-.036.296-.036.592c0 .295.254.387.047.591-.207.204-.295-.053-.591-.053s-.296.053-.577.053h-.577c-.296 0-.296.053-.574.053-.278 0-.296-.091-.577-.091-.28 0-.296-.021-.577-.021-.28 0-.296.136-.576.136-.282 0-.296-.1-.592-.1s-.352.213-.61.079c-.257-.133-.115-.319-.295-.562-.18-.242-.237-.195-.412-.437-.174-.243-.139-.267-.313-.509-.175-.243-.127-.272-.296-.515-.169-.243-.24-.192-.414-.435-.175-.242-.195-.228-.37-.467-.174-.24-.177-.24-.352-.48-.174-.239-.15-.257-.325-.499-.175-.243-.199-.225-.373-.468-.175-.242-.104-.296-.278-.532-.175-.237-.249-.19-.423-.432-.175-.243-.027-.403-.296-.542-.27-.139-.296.042-.592.042s-.296-.051-.591-.051c-.296 0-.296.095-.592.095s-.296-.139-.592-.139c-.295 0-.322-.068-.535.133-.213.201-.02.222-.02.497s-.054.275-.054.553.056.276.056.551-.275.417-.068.591c.207.175.358.03.677.03.32 0 .32-.036.64-.036.319 0 .408-.26.641-.041.234.219-.062.296-.062.592 0 .295.027.295.027.591s.03.296.03.592v.592c0 .295.023.295.023.591s.169.355-.047.559c-.216.204-.296.048-.592.048s-.322-.033-.642-.033-.322-.032-.642-.021c.036.048.05.11.05.11Zm.014-14.679c-.216.204-.059.296-.059.592v.591c0 .296.068.296.068.592s-.026.296-.026.592c0 .295-.09.295-.09.591s.155.296.155.592-.083.296-.083.592c0 .295.053.295.053.591s-.207.337 0 .547c.207.211.26.033.568.033.308 0 .296.036.616.036h.618c.322 0 .296-.036.615-.036.32 0 .31.104.618.104.216 0 .417-.119.613-.131.195-.011.423 0 .615 0s.438 0 .624-.035c.202-.044.4-.106.592-.184.347-.208.633-.505.828-.86.125-.153.23-.321.314-.5a3.47 3.47 0 0 0 .091-.592c.025-.196.037-.394.036-.592.02-.189.029-.38.027-.571a2.71 2.71 0 0 0-.207-.532 2.023 2.023 0 0 0-.213-.521 1.584 1.584 0 0 0-.424-.367 2.093 2.093 0 0 0-.5-.31 4.337 4.337 0 0 0-.573-.133c-.178-.036-.382.02-.592 0-.21-.021-.376-.015-.592-.027-.216-.012-.378-.047-.591-.047h-.598c-.316 0-.316-.077-.633-.077s-.314.1-.63.1c-.317 0-.296-.079-.618-.139-.323-.059-.39-.109-.622.107v-.006Zm14.088 14.679c-.216-.207.056-.313.056-.612v-.592c0-.296-.065-.296-.065-.592 0-.295.026-.295.026-.591s.089-.296.089-.592-.349-.447-.133-.651c.216-.204.37.065.689.065.32 0 .32-.053.639-.053.32 0 .361.21.592 0 .231-.21.032-.254.032-.559 0-.305.036-.296.036-.612v-.61c0-.313-.036-.296-.036-.609 0-.314.104-.296.104-.61 0-.313-.115-.295-.115-.609s.038-.296.038-.609c0-.314.071-.296.071-.61v-.612c0-.317-.086-.296-.086-.61 0-.313-.047-.295-.047-.609s.077-.296.077-.612c0-.317-.033-.296-.033-.61v-.63c0-.296.062-.296.062-.612 0-.317-.085-.296-.085-.61 0-.313.041-.295.041-.612 0-.316.192-.382-.027-.592-.218-.21-.295-.056-.621-.056-.325 0-.322.018-.642.018-.319 0-.449.296-.683.068-.234-.228-.039-.346-.039-.645 0-.299.036-.296.036-.592v-.591c0-.296.077-.296.077-.592s-.101-.296-.101-.592c0-.295-.097-.337.119-.544.216-.207.26-.127.568-.127.307 0 .31.083.618.083s.311.059.621.059c.311 0 .296-.115.618-.115.323 0 .311.032.619.032.307 0 .31-.018.621-.018s.311.03.618.03c.308 0 .311.018.621.018.311 0 .296-.083.619-.083.322 0 .31.038.621.038s.296.08.618.08h.621c.311 0 .441-.296.666-.092.225.205-.068.347-.068.645 0 .299.074.296.074.592s-.121.296-.121.592v.591c0 .296.02.296.02.592s.296.426.074.63c-.221.204-.349 0-.668 0-.32 0-.32-.071-.642-.071-.323 0-.447-.234-.681-.015-.233.219.11.349.11.654 0 .305-.148.296-.148.61 0 .313.071.295.071.609 0 .313-.018.296-.018.609 0 .314.071.296.071.61v.609c0 .314.033.296.033.612 0 .317-.133.296-.133.61 0 .313.133.296.133.609 0 .314-.13.296-.13.61v1.221c0 .314-.024.296-.024.61 0 .313.151.296.151.612 0 .317.015.296.015.61 0 .313-.08.295-.08.609s-.053.296-.053.612c0 .317-.178.409.044.619.222.21.325 0 .645 0 .319 0 .319.023.639.023.319 0 .429-.26.662-.041.234.219-.038.322-.038.618s-.024.296-.024.592.065.296.065.592c0 .295-.05.295-.05.591s.027.296.027.592.162.337-.054.544c-.215.207-.257-.024-.568-.024-.31 0-.295.131-.618.131h-.618c-.323 0-.311-.036-.618-.036-.308 0-.311-.029-.622-.029-.31 0-.31.088-.618.088s-.31-.109-.621-.109-.296.038-.618.038c-.323 0-.311-.068-.622-.068-.31 0-.295.021-.618.021-.322 0-.311.047-.618.047-.308 0-.329-.109-.633-.041-.305.068-.408.272-.63.056Zm14.38-13.939c-.02.201-.061.399-.124.591a2.09 2.09 0 0 1-.199.553 1.918 1.918 0 0 1-.313.509 1.518 1.518 0 0 1-1.056.435c-.184.039-.358.21-.562.21a2.72 2.72 0 0 1-.571-.139 1.88 1.88 0 0 1-1.071-.45 2.007 2.007 0 0 1-.323-.467 1.923 1.923 0 0 1-.183-.521 2.123 2.123 0 0 1-.074-.544c-.011-.215.002-.43.038-.642.081-.197.18-.387.296-.565a3.6 3.6 0 0 1 .213-.606c.163-.231.195-.21.361-.438.166-.228.222-.187.388-.417.165-.231.168-.225.334-.453s.095-.296.257-.512c.163-.216.128-.254.296-.485.169-.231.133-.278.385-.408.251-.13.263-.03.541-.03h.547c.278 0 .278.062.554.062.275 0 .446-.295.591-.071.145.225-.157.296-.281.568-.124.273-.089.296-.21.571-.121.275-.177.252-.296.53-.118.278-.103.296-.227.565-.101.174-.156.37-.16.571.178.092.341.212.482.355.133.178.233.378.296.592.057.206.081.421.071.636Zm2.106 4.795c0-.213.071-.42.083-.627.012-.207.021-.42.044-.624.024-.204 0-.429.033-.633.032-.205.109-.409.163-.61.053-.201.198-.376.263-.574.065-.198 0-.449.08-.642.08-.192.248-.352.343-.538.095-.186.154-.396.263-.574.11-.177.204-.373.326-.544.121-.172.295-.296.429-.468.133-.171.295-.296.443-.449.148-.154.296-.296.438-.45.142-.154.272-.296.423-.42.151-.124.37-.172.53-.296.159-.124.257-.322.42-.432.162-.109.358-.18.529-.278.172-.098.379-.127.556-.213.178-.086.358-.16.542-.237.183-.076.337-.224.523-.295.187-.071.367-.166.56-.219.192-.054.399-.024.591-.065.192-.042.382-.11.592-.142.21-.033.39-.054.591-.071.202-.018.397.026.592.017.195-.008.394-.1.592-.1.198 0 .396.044.591.056.196.012.4 0 .592 0 .192 0 .388.107.592.136.204.03.393.047.591.089.199.041.409 0 .592.059s.388.095.574.157c.186.062.311.183.494.26.095-.142-.136-.275.015-.358.272-.151.331.071.645.071.313 0 .31-.1.621-.1s.311.142.621.142c.311 0 .311-.148.621-.148.311 0 .311.083.622.083.31 0 .355-.181.574.038.218.219.097.263.097.574 0 .31-.032.31-.032.621s.014.311.014.621c0 .311-.026.311-.026.622 0 .31-.018.295-.018.621 0 .325.083.31.083.621s-.039.311-.039.621c0 .311-.079.314-.079.624v.622c0 .31.295.446.088.668-.207.222-.355-.068-.665-.068-.311 0-.311.074-.622.074-.31 0-.31-.124-.621-.124h-.624c-.311 0-.311.021-.621.021-.311 0-.453.295-.657.071-.204-.225 0-.391 0-.755s.136-.375.071-.733c-.16-.122-.317-.296-.479-.388-.163-.092-.403-.098-.592-.186-.189-.089-.296-.296-.479-.382-.184-.086-.399-.068-.592-.121a5.192 5.192 0 0 0-.577-.148 5.825 5.825 0 0 0-.591 0 6.384 6.384 0 0 0-.592-.027c-.204 0-.42.045-.627.062-.207.018-.441-.082-.645-.044-.204.039-.382.216-.592.275a6.608 6.608 0 0 0-.639.095 5.416 5.416 0 0 0-.571.296 6.193 6.193 0 0 0-.544.334c-.178.118-.35.246-.515.382-.165.142-.21.402-.352.562-.136.16-.26.33-.372.508a5.346 5.346 0 0 0-.385.515c-.111.191-.21.388-.296.592a5.962 5.962 0 0 0-.127.636 6.224 6.224 0 0 0-.077.639c-.018.207-.05.423-.05.642 0 .219.056.432.074.639.017.207 0 .438.041.642.031.213.074.425.13.633.086.203.185.401.296.591.124.415.348.792.651 1.101.205.372.495.691.846.932.16.127.402.136.574.242.171.109.348.208.529.296.187.083.358.19.551.255.193.073.391.135.591.186.196.038.409-.021.613 0 .204.021.396.136.591.136.196 0 .417-.047.622-.062.204-.015.429.024.63 0s.411-.104.609-.157c.198-.053.388-.163.592-.237.204-.073.402-.121.591-.215.19-.095.332-.255.509-.367.157-.112.308-.231.453-.358.068-.337 0-.332 0-.675s-.178-.452.053-.707c.231-.254.334 0 .645 0s.311.068.621.068c.311 0 .311-.112.621-.112.311 0 .311.024.622.024.31 0 .31.038.624.038.313 0 .367-.192.592.024.224.216.035.272.035.591 0 .32-.053.296-.053.592s.05.296.05.609v.61c0 .313.107.319.053.618-.142.154-.366.263-.511.405a6.708 6.708 0 0 1-.459.406c-.163.133-.222.375-.382.503-.159.127-.384.177-.55.295-.165.119-.296.296-.461.415-.166.118-.403.13-.592.227-.189.098-.328.261-.512.349-.183.089-.393.128-.591.202-.199.073-.4.091-.592.153-.192.063-.37.196-.568.243-.198.047-.393.118-.592.154-.198.035-.405.074-.609.097-.204.024-.411 0-.615.027a4.738 4.738 0 0 1-.616.044c-.204 0-.405-.091-.591-.1-.187-.009-.412.068-.61.05-.198-.018-.396-.124-.591-.154-.196-.029-.409-.017-.592-.056-.184-.038-.385-.133-.577-.183-.192-.051-.417 0-.609-.074-.193-.074-.335-.261-.521-.335-.186-.074-.435 0-.615-.094-.181-.095-.349-.216-.524-.314-.174-.097-.322-.245-.494-.352-.172-.106-.367-.174-.532-.296-.166-.121-.267-.296-.424-.438a16.195 16.195 0 0 1-.437-.411c-.142-.139-.326-.263-.465-.411-.139-.148-.31-.281-.444-.441-.133-.159-.207-.364-.325-.532-.118-.169-.254-.326-.361-.503-.106-.178-.236-.343-.328-.53a10.27 10.27 0 0 1-.255-.568c-.079-.189-.171-.378-.236-.576-.065-.199-.062-.412-.113-.616-.05-.204-.156-.387-.192-.591-.035-.205-.038-.412-.062-.619-.024-.207-.021-.411-.033-.621-.011-.21-.124-.426-.124-.636Zm19.534 9.144c-.208-.195.059-.296.059-.592v-.571c0-.275-.065-.296-.065-.571 0-.275.023-.295.023-.571 0-.275.089-.295.089-.574 0-.278-.325-.405-.136-.618.189-.213.296.059.568.059.272 0 .257-.053.515-.053.257 0 .263.136.47-.015.207-.151.157-.233.281-.514.124-.281.16-.27.296-.551.136-.281.118-.295.245-.568.128-.272.095-.295.222-.591.128-.296.219-.24.346-.521.128-.281.024-.331.151-.612.128-.281.16-.267.296-.551.136-.284.195-.251.323-.532.127-.281.133-.281.26-.562s.047-.32.174-.592c.128-.272.083-.296.211-.591.127-.296.198-.249.325-.533.127-.284.098-.296.225-.577l.254-.565c.127-.296.184-.257.311-.541.127-.284.047-.317.174-.592.128-.275.166-.263.296-.547.13-.284.095-.296.222-.592s.186-.257.314-.541c.127-.284.429-.352.236-.592-.192-.239-.491.296-.766.062-.222-.18-.041-.337-.041-.621s.035-.296.035-.571v-.571c0-.275.077-.296.077-.571 0-.275-.101-.296-.101-.574 0-.278-.094-.325.116-.517.21-.193.269-.128.592-.128.322 0 .316.083.633.083.316 0 .316.059.633.059.316 0 .316-.115.633-.115.316 0 .316.033.633.033.316 0 .316-.018.633-.018.316 0 .316.029.633.029.316 0 .316.018.633.018s.317-.083.633-.083c.317 0 .382-.124.651.042.269.165.062.319.183.591.122.273.128.27.252.545s.219.228.343.5c.124.272.044.296.166.591.121.296.192.243.313.515s0 .323.133.592c.133.269.13.269.252.541.121.272.142.263.266.536.124.272.198.236.322.511.125.276.122.273.246.545s.056.296.18.574c.125.278.095.295.216.556.122.26.237.222.361.494.125.272 0 .334.11.606.109.272.189.243.296.515.106.272.106.281.23.553.125.272.187.243.311.515s.121.272.245.544c.125.272.154.261.276.533.121.272 0 .328.124.591.124.264.242.219.367.491.124.273 0 .326.124.592.124.266.127.269.248.544.122.276.116.276.237.551.121.275.101.295.225.556.124.26.26.21.381.485.122.275 0 .331.234.506.234.174.207.065.465.065.257 0 .257.053.514.053.258 0 .335-.234.506-.044.172.189 0 .278 0 .565 0 .287-.02.296-.02.571 0 .275.047.296.047.571 0 .275-.047.296-.047.571 0 .275-.024.295-.024.571 0 .275.266.393.056.591-.21.198-.316-.044-.621-.044s-.296.027-.592.027-.296-.077-.591-.077h-.592c-.296 0-.296.13-.592.13h-.591c-.296 0-.296-.036-.592-.036s-.296-.029-.592-.029-.296.088-.591.088c-.296 0-.296-.109-.592-.109s-.385.248-.592.038c-.207-.21.071-.295.071-.568 0-.272-.023-.295-.023-.57 0-.276-.048-.296-.048-.571 0-.276.045-.296.045-.571 0-.276-.065-.296-.065-.574 0-.278-.234-.426-.024-.619.21-.192.414.243.612 0 .198-.242.054-.295-.18-.423-.234-.127-.296 0-.592 0s-.296-.068-.609-.068c-.314 0-.296.113-.61.113-.313 0-.295-.024-.609-.024s-.296-.038-.609-.038c-.314 0-.296-.036-.61-.036-.313 0-.296.05-.609.05-.314 0-.296-.056-.61-.056-.313 0-.295.053-.609.053h-.609c-.296 0-.296.054-.61.054-.313 0-.296-.092-.609-.092-.314 0-.376-.169-.639 0-.264.169-.296.278-.13.488.165.21.319-.145.55.065.231.21.08.272.08.559 0 .287-.101.296-.101.571 0 .275.077.296.077.571 0 .275-.044.296-.044.571 0 .275-.057.296-.057.571 0 .275.281.394.071.592-.21.198-.316.029-.618.029h-.591c-.296 0-.296-.026-.607-.026s-.296.026-.592.026c-.295 0-.295-.085-.591-.085s-.296.088-.592.088-.296-.083-.606-.083c-.311 0-.296.042-.592.042s-.296-.05-.592-.05a1.85 1.85 0 0 0-.591.094c-.521.068-.619.163-.84-.044Zm7.874-7.508c.166.245.279.056.574.056h.592c.296 0 .296-.068.592-.068s.296.027.591.027c.296 0 .296.088.592.088s.296-.153.592-.153c.295 0 .295.082.591.082s.411.225.556-.032c.145-.258-.159-.243-.295-.536-.136-.293-.08-.313-.21-.591-.131-.278-.101-.296-.231-.592s-.139-.296-.269-.592c-.131-.295-.163-.278-.296-.571-.133-.292-.039-.334-.169-.627s-.234-.245-.364-.538c-.13-.293-.097-.296-.227-.592-.131-.296.065-.621-.255-.659-.319-.039-.201.295-.319.568-.119.272-.042.295-.16.562-.118.266-.077.295-.195.547-.119.251-.19.231-.296.494-.107.263-.089.278-.207.541-.119.264-.122.264-.24.527s-.174.237-.296.5c-.121.263-.041.296-.159.565a1.69 1.69 0 0 1-.276.509c-.192.207-.375.245-.216.485Zm14.351 7.508c-.216-.207.059-.314.059-.612v-.592c0-.296-.068-.296-.068-.592s.027-.296.027-.591c0-.296.088-.296.088-.592s-.349-.447-.13-.651c.219-.204.367.065.687.065.319 0 .319-.053.639-.053.319 0 .361.21.591 0 .231-.21.033-.254.033-.559 0-.305.035-.296.035-.613v-.606c0-.311-.035-.296-.035-.612 0-.317.103-.296.103-.61 0-.313-.112-.296-.112-.609 0-.314.035-.296.035-.61 0-.313.074-.295.074-.609v-.609c0-.314-.085-.296-.085-.613 0-.316-.048-.296-.048-.609 0-.314.077-.296.077-.61 0-.313-.032-.295-.032-.612v-.63c0-.296.062-.296.062-.609 0-.314-.086-.296-.086-.613 0-.316.041-.296.041-.612 0-.317.196-.382-.026-.592-.222-.21-.296-.056-.621-.056-.326 0-.32.018-.642.018-.323 0-.45.296-.684.068-.233-.228-.035-.346-.035-.645 0-.299.035-.296.035-.592v-.591c0-.296.077-.296.077-.592s-.1-.296-.1-.592-.089-.334.121-.547c.21-.213.24-.124.532-.124.293 0 .296.083.592.083s.296.059.592.059.296-.116.591-.116c.296 0 .296.033.592.033s.296-.018.592-.018c.295 0 .295.03.591.03s.296.018.592.018.296-.083.592-.083c.295 0 .295.038.591.038s.296.08.592.08h.592c.295 0 .375-.257.624-.098.248.16.08.341.216.619.136.278.201.242.337.517s.024.332.157.61c.133.278.142.272.278.55.136.278.154.266.296.544s.21.24.346.515c.136.275.136.278.269.556s.071.296.207.592.11.296.243.568c.133.272.248.222.384.5s0 .34.136.618c.136.278.201.246.338.524.136.278.118.296.254.562.136.266.198.245.334.52l.272.557c.133.278.166.263.296.538.13.275.018.337.154.615.136.278 0 .453.317.453.316 0 .183-.175.319-.453s.13-.278.266-.553.145-.272.296-.55.16-.266.296-.542c.136-.275 0-.343.139-.621.139-.278.121-.296.257-.559.136-.263.207-.242.344-.521.136-.278.183-.251.319-.529s.101-.296.237-.571c.136-.275.121-.296.257-.562.136-.266.157-.266.296-.544.139-.278.092-.296.228-.592s.177-.254.313-.533c.136-.278.157-.266.296-.544.139-.278.08-.296.216-.591.136-.296.18-.255.317-.533.136-.278.112-.296.248-.565.136-.269.05-.331.314-.491.263-.16.275 0 .591 0 .317 0 .317-.13.633-.13h.633c.317 0 .317.038.633.038.317 0 .317.03.634.03.316 0 .316-.089.633-.089.316 0 .316.107.633.107.316 0 .313-.039.63-.039.316 0 .316.071.633.071.316 0 .316-.024.633-.024s.319-.047.636-.047.373-.186.592.033c.219.219.05.266.05.565 0 .298.044.295.044.591v.592c0 .296-.044.296-.044.592 0 .295-.021.295-.021.591s.169.352-.047.556c-.216.205-.281.098-.592.098-.31 0-.319-.024-.639-.024-.319 0-.414-.257-.648-.035-.233.222-.035.311-.035.615 0 .305.05.296.05.61 0 .313-.056.295-.056.609s.053.296.053.609v.622c0 .295.053.295.053.609s-.094.296-.094.612c0 .317-.018.296-.018.61 0 .313.136.296.136.609 0 .314-.1.296-.1.61 0 .313.085.295.085.612s-.1.296-.1.609c0 .314.08.296.08.61 0 .313-.048.296-.048.612 0 .317-.056.296-.056.61 0 .313.08.295.08.609s.024.296.024.612c0 .317-.231.364 0 .574.23.21.295.015.591.015s.323-.03.642-.03c.32 0 .382-.139.616.08.233.219.079.272.079.571 0 .299-.085.296-.085.592s.044.296.044.592c0 .295-.05.295-.05.591s.094.296.094.592.101.334-.115.541c-.216.207-.254.13-.562.13-.308 0-.311-.044-.618-.044-.308 0-.311-.053-.622-.053-.31 0-.295.053-.618.053-.322 0-.296-.086-.618-.086h-.621c-.311 0-.296.036-.619.036-.322 0-.295.041-.621.041-.325 0-.296-.065-.618-.065-.323 0-.311.027-.618.027-.308 0-.311.032-.622.032h-.621c-.325 0-.402.234-.627.021-.225-.213.062-.296.062-.592s-.059-.296-.059-.591c0-.296.029-.296.029-.592s.024-.296.024-.592c0-.295-.103-.295-.103-.591s-.128-.355.088-.559c.216-.205.296 0 .607 0 .31 0 .319-.066.639-.066.319 0 .435.296.665.069.231-.228-.103-.332-.103-.634v-1.183c0-.296.148-.296.148-.592 0-.295-.095-.295-.095-.591s.044-.296.044-.592.021-.296.021-.591c0-.296-.029-.296-.029-.592s.079-.296.079-.592-.15-.296-.15-.591c0-.296.097-.296.097-.592s-.086-.296-.086-.592.358-.591.063-.648c-.296-.056-.172.296-.314.592-.142.296-.109.296-.249.568-.139.272-.115.296-.257.562-.142.266-.145.275-.296.55s-.112.296-.254.565c-.142.27-.26.216-.402.491-.142.276-.06.317-.202.592-.142.275-.21.243-.352.518s-.094.296-.236.574c-.142.278-.125.296-.267.559-.142.263-.236.228-.378.506-.142.278-.104.296-.246.568-.142.272-.038.331-.18.606-.142.275-.181.255-.323.533-.142.278-.195.245-.337.523-.142.278-.169.261-.31.536-.142.275-.069.313-.214.591-.144.278-.026.409-.295.568-.27.16-.332.021-.645.021-.314 0-.317-.038-.63-.038-.314 0-.314-.054-.63-.054-.317 0-.397.264-.666.101s-.175-.296-.317-.574c-.142-.278 0-.349-.139-.624s-.148-.269-.295-.545c-.148-.275-.175-.26-.314-.535s-.16-.266-.296-.541c-.136-.275-.08-.296-.222-.592-.142-.296-.266-.21-.405-.485s-.101-.296-.243-.574c-.142-.278-.065-.314-.207-.592-.142-.278-.186-.251-.328-.526-.142-.275-.169-.264-.296-.539-.127-.275-.195-.248-.337-.523-.142-.275-.015-.34-.154-.616-.139-.275-.21-.239-.352-.514s-.186-.255-.328-.53c-.142-.275-.045-.325-.184-.592-.139-.266-.198-.248-.34-.523-.142-.275.021-.681-.296-.624-.316.056.086.366.086.668 0 .302-.041.296-.041.592s-.054.296-.054.592c0 .295.027.295.027.591s-.041.296-.041.592.047.296.047.591c0 .296.059.296.059.592v.592c0 .296-.112.296-.112.591 0 .296.13.296.13.592s-.092.296-.092.592-.068.296-.068.606c0 .311-.139.397.08.592.219.195.319-.021.639-.021.319 0 .319.056.642.056.322 0 .444-.295.677-.077.234.219-.074.341-.074.639v.592c0 .296.054.296.054.592s-.116.296-.116.591c0 .296.045.296.045.592s.23.367 0 .574c-.231.207-.296-.056-.592-.056s-.296.097-.621.097c-.326 0-.296-.023-.619-.023-.322 0-.295.038-.618.038-.322 0-.31-.047-.621-.047s-.296.071-.618.071c-.323 0-.296-.048-.619-.048-.322 0-.295.027-.621.027-.325 0-.311.036-.618.036-.308 0-.296-.145-.621-.145-.326 0-.296.038-.619.038-.322 0-.334-.106-.639-.038-.304.068-.461.269-.686.053Zm26.79 0c-.216-.207.056-.313.056-.612v-.592c0-.296-.065-.296-.065-.592 0-.295.027-.295.027-.591s.089-.296.089-.592-.349-.447-.133-.651c.215-.204.369.065.689.065.319 0 .319-.053.639-.053.319 0 .361.21.591 0 .231-.21.033-.254.033-.559 0-.305.035-.296.035-.612v-.607c0-.31-.035-.296-.035-.612 0-.317.104-.296.104-.61 0-.313-.116-.295-.116-.609 0-.313.039-.296.039-.609 0-.314.071-.296.071-.61v-.609c0-.314-.086-.296-.086-.612 0-.317-.048-.296-.048-.61 0-.313.077-.296.077-.609 0-.314-.032-.296-.032-.613v-.63c0-.296.062-.296.062-.609 0-.314-.086-.296-.086-.613 0-.316.042-.295.042-.612 0-.316.192-.382-.027-.592-.219-.21-.296-.056-.621-.056-.326 0-.323.018-.642.018-.32 0-.45.296-.684.068-.233-.228-.038-.346-.038-.645 0-.299.035-.296.035-.592v-.591c0-.296.077-.296.077-.592s-.1-.296-.1-.591c0-.296-.095-.338.118-.545.213-.207.255-.127.562-.127.308 0 .296.083.616.083.319 0 .295.059.612.059.316 0 .296-.115.612-.115.317 0 .296.032.616.032.319 0 .295-.018.612-.018.316 0 .296.03.615.03.32 0 .296.018.616.018.319 0 .295-.083.612-.083.316 0 .296.038.615.038.32 0 .296.08.613.08h.615c.296 0 .296-.106.615-.106.32 0 .296.083.616.083.207 0 .408-.071.591-.066.184.006.403.14.592.151.189.012.405.018.592.036.186.018.405.024.591.05.187.027.417-.026.61 0 .192.027.405.08.591.124.187.045.379.172.565.231.187.059.376.154.559.225.184.071.429.044.592.13.163.086.296.323.453.426.181.09.358.188.529.296.156.134.303.277.441.429.158.134.309.277.45.429.123.167.235.342.337.523a4.9 4.9 0 0 1 .296.548c.077.186.023.426.086.627.062.201.236.361.278.565.041.204-.054.423-.027.633.027.21.047.399.059.609.012.21 0 .406 0 .616 0 .21-.029.411-.041.609s.118.429.091.627c-.026.198-.047.417-.088.613a6.278 6.278 0 0 1-.237.591 5.572 5.572 0 0 1-.26.553c-.069.193-.15.381-.243.563-.098.18-.209.353-.331.517-.13.159-.271.307-.423.444a4.497 4.497 0 0 1-.432.441c-.154.118-.346.189-.518.296-.171.106-.349.171-.532.26-.184.089-.329.219-.518.296-.189.077-.385.086-.592.145-.207.059-.369.133-.568.18-.198.047-.393 0-.591.047-.199.048-.382.063-.592.089-.21.027-.373.178-.592.198-.219.021-.39.027-.591.039-.201.012-.394-.015-.592 0-.198.015-.393-.024-.592-.024-.313 0-.313.089-.627.089-.313 0-.316-.107-.63-.107-.313 0-.313.039-.627.039s-.479-.296-.683-.044c-.205.251 0 .414 0 .784 0 .369-.196.461.047.739.243.278.319.044.639.044.319 0 .319-.065.642-.065.322 0 .45-.245.683-.026.234.219.03.346.03.645 0 .298-.045.295-.045.591s-.02.296-.02.592-.068.296-.068.592c0 .295.115.295.115.591s.181.414-.035.622c-.216.207-.332-.03-.639-.03-.308 0-.296-.036-.622-.036-.325 0-.295.051-.618.051-.322 0-.311-.056-.618-.056-.308 0-.296.053-.621.053h-.619c-.31 0-.31.053-.621.053s-.296-.092-.618-.092c-.323 0-.296-.02-.621-.02-.326 0-.296.136-.619.136-.322 0-.31-.101-.618-.101a1.8 1.8 0 0 0-.606.086c-.222.035-.32.127-.542-.089Zm6.168-8.603c.192.211.266.06.55.06h.568c.273 0 .296-.065.568-.065.273 0 .296.023.568.023.273 0 .296.092.568.092.213 0 .414-.163.592-.175.177-.011.426.048.615.018.202-.047.4-.11.592-.186.189-.063.371-.147.541-.252.185-.078.356-.186.506-.319.155-.149.288-.318.397-.503.096-.189.172-.387.227-.592.046-.209.076-.422.089-.636a5.49 5.49 0 0 0 .136-.636 3.947 3.947 0 0 0-.145-.651 2.927 2.927 0 0 0-.127-.621 2.275 2.275 0 0 0-.254-.591 2.108 2.108 0 0 0-.48-.453 3.166 3.166 0 0 0-.612-.219 4.686 4.686 0 0 0-.618-.142 5.877 5.877 0 0 0-.61-.186c-.201-.024-.414 0-.639-.024-.224-.024-.414-.018-.636-.018-.295 0-.295-.062-.591-.062s-.296.089-.592.089-.296-.045-.592-.045c-.295 0-.372-.186-.591.03-.219.216-.054.296-.054.592s.015.296.015.609c0 .314.086.296.086.609 0 .314.018.296.018.61 0 .313-.036.296-.036.612v.61c0 .313-.077.295-.077.609s.101.296.101.609c0 .314-.08.296-.139.592-.059.296-.151.391.056.612Z"/>
  <path fill="#D59274" d="m70.987 167.971.923 2.094h1.03l-3.705-8.283h-.982l-3.715 8.283h1.005l.923-2.094h4.52Zm-.403-.911H66.87l1.846-4.201 1.87 4.201Zm3.654-5.278v8.283h3.313c2.438 0 4.296-1.787 4.296-4.141 0-2.355-1.846-4.142-4.26-4.142h-3.349Zm.947.911h2.378c1.858 0 3.325 1.385 3.325 3.242 0 1.846-1.443 3.231-3.29 3.231h-2.413v-6.473Zm11.445 7.372 3.385-8.283h-.994l-2.864 7.183-2.852-7.183h-1.017l3.36 8.283h.983Zm10.331-7.372v-.911h-5.62v8.283h5.774v-.899h-4.828v-2.84h4.177v-.911h-4.177v-2.722h4.674Zm8.974 7.372v-8.283H105v6.662l-4.97-6.662h-.982v8.283h.947v-6.65l4.97 6.65h.97Zm7.75-7.372v-.911h-6.355v.911h2.698v7.372h.947v-7.372h2.71Zm8.136-.911h-.946v4.875c0 1.61-.947 2.544-2.521 2.544-1.573 0-2.544-.934-2.544-2.544v-4.875h-.946v4.875c0 2.154 1.313 3.455 3.49 3.455 2.166 0 3.467-1.301 3.467-3.455v-4.875Zm7.734 8.283h1.077l-1.94-2.816c1.195-.391 1.857-1.314 1.857-2.686 0-1.763-1.195-2.781-3.266-2.781h-3.147v8.283h.946v-2.615h2.201c.19 0 .379-.012.557-.024l1.715 2.639Zm-4.473-3.526v-3.846h2.201c1.503 0 2.355.639 2.355 1.893 0 1.29-.852 1.953-2.355 1.953h-2.201Zm13.226-3.846v-.911h-5.621v8.283h5.775v-.899h-4.828v-2.84h4.177v-.911h-4.177v-2.722h4.674Zm-85.976 1.536.296.964a1.286 1.286 0 0 0 .855.852l.964.296-.964.296a1.292 1.292 0 0 0-.855.854l-.296.965-.296-.965a1.286 1.286 0 0 0-.858-.852l-.964-.295.964-.296a1.275 1.275 0 0 0 .852-.852l.302-.967Zm100.229 0 .296.964a1.282 1.282 0 0 0 .855.852l.964.296-.964.296a1.294 1.294 0 0 0-.855.854l-.296.965-.296-.965a1.28 1.28 0 0 0-.852-.854l-.964-.296.964-.296a1.28 1.28 0 0 0 .852-.852l.296-.964Z"/>
</svg>
