<svg xmlns="http://www.w3.org/2000/svg" viewBox="0 0 1207.79 111.77"><path d="M0,56.17c0-1.26-.06-2.53,0-3.75S.81,50,1,48.75s.09-2.51.32-3.72.15-2.54.46-3.73.76-2.4,1.15-3.57.86-2.36,1.34-3.5S5.44,32,6,30.92,7.72,29.06,8.37,28s1.27-2.1,2-3.11,1-2.34,1.81-3.3,2.07-1.46,2.93-2.37,1.65-1.8,2.57-2.66,1.44-1.92,2.33-2.67,2-1.29,2.91-2,1.74-1.63,2.71-2.27,2-1.3,3-1.88,2-1.2,3.09-1.71,2.31-.6,3.4-1,2.18-.82,3.29-1.2S40.57,3,41.71,2.66s2.2-.86,3.35-1.1,2.35-.21,3.51-.39S50.86.61,52,.49s2.35.12,3.53.06,2.33-.1,3.51-.1S61.45,0,62.61,0s2.35.36,3.5.48,2.36.17,3.5.35,2.25.77,3.39,1,2.21.76,3.33,1.06,2.48-.08,3.58.3,2.25,1.28,3.33,1.72c.57-.84-1-1.62-.15-2.11,1.61-.89,1.82-.43,3.66-.43s1.83.87,3.67.87,1.84-.84,3.68-.84,1.84.78,3.68.78,1.84-.4,3.68-.4,2.51-1.46,3.82-.16-.5,2-.5,3.81-.12,1.84-.12,3.68.08,1.84.08,3.67.45,1.84.45,3.68.14,1.84.14,3.68-.15,1.84-.15,3.67.14,1.84.14,3.68-.64,1.84-.64,3.68.65,1.84.65,3.68,1.08,2.35-.22,3.65-1.81,0-3.64,0-1.84.29-3.68.29-1.84-.22-3.68-.22-1.84.14-3.67.14-1.85-.16-3.69-.16-2.63,1.54-3.83.14c-1.39-1.64-.22-2.28-.22-4.43s1-2.23.64-4.34c-.93-.74-2.3-1.15-3.27-1.78s-2-1.27-3-1.8a32.32,32.32,0,0,0-3.26-1.27,33.53,33.53,0,0,0-3.31-1,35.06,35.06,0,0,0-3.31-1.16c-1.15-.21-2.33-.06-3.51-.17s-2.3-.19-3.49-.19-2.56-.65-3.78-.54S54,24,52.8,24.19s-2.6-.06-3.78.29a33.46,33.46,0,0,0-3.37,1.73,34.75,34.75,0,0,0-3.43,1.48c-1.08.61-1.9,1.61-2.93,2.34A36.77,36.77,0,0,0,36.07,32a29.3,29.3,0,0,0-2.32,3,27.09,27.09,0,0,0-2.32,3,30.53,30.53,0,0,0-2.32,3,30.64,30.64,0,0,0-1.44,3.55,33.25,33.25,0,0,0-.81,3.73c-.24,1.22-.13,2.5-.25,3.8s-.2,2.47-.2,3.77-.58,2.6-.47,3.83a36.39,36.39,0,0,0,.81,3.74,34.84,34.84,0,0,0,.61,3.79,29.74,29.74,0,0,0,1.58,3.49A30,30,0,0,0,31,73.88a28.37,28.37,0,0,0,2.32,3,31.16,31.16,0,0,0,2.49,2.8c.88.84,1.36,2.12,2.29,2.85A33.31,33.31,0,0,0,41,84.72c1,.63,2.42.62,3.51,1.12s2,1.48,3.16,1.85a32,32,0,0,0,3.59.57,34.65,34.65,0,0,0,3.58.46c1.17.11,2.36.62,3.59.62s2.49-.28,3.69-.38,2.51,0,3.71-.25,2.33-.92,3.51-1.24,2.32-.77,3.46-1.21,2.29-.86,3.39-1.41a36.5,36.5,0,0,0,3.35-1.57c1-.65,1.54-1.63,2.51-2.4a13.57,13.57,0,0,0,.58-4c0-2-1.86-2.81-.49-4.32s2.11.53,3.95.53,1.84-.55,3.68-.55,1.84,0,3.67,0,1.84.67,3.68.67,1.84.11,3.69.11,2.64-2.05,4-.76-.12,2.08-.12,3.88-.26,1.8-.26,3.6-.23,1.79-.23,3.59,0,1.8,0,3.6.81,1.87.48,3.64c-.83.9-2.09,1.51-2.94,2.35s-1.62,1.82-2.51,2.62-1.57,1.93-2.5,2.68-2.27,1-3.25,1.74-1.59,2-2.6,2.64-2.08,1.31-3.14,1.9-2.35.76-3.44,1.27-2.37.62-3.49,1.06-2.1,1.3-3.25,1.66-2.43.28-3.61.58-2.19,1.32-3.39,1.54-2.44.13-3.65.28-2.4.53-3.62.6-2.43-.58-3.66-.58-2.41.64-3.59.59-2.34-1-3.51-1.09-2.49.62-3.66.46-2.3-.86-3.46-1.08-2.26-.81-3.4-1.11-2.49,0-3.62-.35-2.2-1-3.3-1.42-2-1.39-3.07-1.89-2.38-.55-3.43-1.12-1.76-1.67-2.77-2.3-2.22-.94-3.18-1.64-2-1.25-3-2-1.42-2-2.29-2.79-2-1.44-2.88-2.32-2.06-1.5-2.84-2.44-1.55-2-2.25-3-.95-2.34-1.58-3.39-1.69-1.89-2.25-3-.3-2.56-.78-3.7-1.3-2.12-1.69-3.29S2.29,72,2,70.81s0-2.5-.19-3.72-.34-2.39-.49-3.62S.46,61.1.39,59.86,0,57.41,0,56.17Z"/><path d="M115.53,55.78c0-1.25-.06-2.51,0-3.72s.78-2.43.93-3.64.08-2.49.31-3.69.15-2.52.46-3.71.76-2.38,1.15-3.54.86-2.35,1.34-3.48,1.2-2.18,1.77-3.27,1.71-1.85,2.36-2.9,1.26-2.08,2-3.08,1-2.32,1.79-3.28,2.06-1.44,2.92-2.34,1.64-1.79,2.55-2.65,1.44-1.91,2.33-2.66,2-1.29,2.92-2,1.74-1.62,2.72-2.26,2-1.3,3-1.87,2-1.2,3.09-1.71,2.32-.59,3.4-1,2.19-.81,3.31-1.19,2.18-.83,3.32-1.14,2.21-.85,3.37-1.09,2.34-.2,3.51-.38,2.29-.56,3.47-.67,2.35.12,3.54.06,2.32-.1,3.51-.1S177,0,178.13,0s2.36.37,3.52.48,2.37.17,3.52.35,2.26.77,3.4,1,2.23.75,3.35,1.05,2.49-.08,3.6.29,2,1.37,3.09,1.81,2.22.77,3.28,1.28,2.3.69,3.33,1.26,1.57,1.93,2.56,2.57,2.41.62,3.36,1.32,1.38,2,2.29,2.79,2,1.22,2.88,2,1.94,1.58,2.78,2.46,1.25,2.19,2,3.13,1.43,2,2.14,3,1.45,2,2.09,3,1.64,1.89,2.21,3,1.22,2.16,1.7,3.29.78,2.34,1.18,3.51.9,2.31,1.21,3.5,0,2.52.19,3.74,1,2.31,1.2,3.54,0,2.46.1,3.71.08,2.44.08,3.69.26,2.49.19,3.71-.4,2.46-.54,3.67-.2,2.47-.43,3.67-.67,2.39-1,3.58-.47,2.44-.87,3.6-.68,2.4-1.16,3.53-1.59,2-2.16,3.07-.71,2.43-1.36,3.48-1.38,2-2.11,3-1.33,2.09-2.12,3-1.57,1.92-2.42,2.83-2,1.48-2.91,2.33-1.55,1.82-2.45,2.57-1.87,1.46-2.81,2.15-2.31.79-3.29,1.43-1.61,1.88-2.63,2.46-2.34.58-3.4,1.09-1.93,1.43-3,1.88-2.25.68-3.36,1.06-2.13,1.1-3.27,1.41-2.39.11-3.55.35-2.21.94-3.38,1.12-2.34.28-3.52.39-2.38-.31-3.56-.25-2.33.06-3.52.06-2.36.14-3.52.09-2.39.15-3.55,0-2.35-.3-3.5-.47-2.21-1-3.35-1.25-2.36-.21-3.49-.52-2.16-.95-3.27-1.32-2.29-.54-3.37-1-2.32-.59-3.37-1.11-2.21-.89-3.23-1.47-2-1.25-3-1.9-1.57-1.85-2.52-2.55-1.72-1.57-2.62-2.33-2.21-1-3.08-1.83-1.38-2.12-2.21-3-1.94-1.58-2.72-2.52-1.6-1.89-2.32-2.88-1-2.27-1.66-3.32-1.45-2-2-3.08-.89-2.28-1.38-3.42-1.35-2.1-1.75-3.27-.82-2.33-1.13-3.53S117,68,116.8,66.82s-.1-2.46-.25-3.69-.85-2.39-.92-3.64S115.53,57,115.53,55.78Zm26.32.07c0,1.31.15,2.55.27,3.8s-.28,2.64,0,3.88a32.71,32.71,0,0,0,1.22,3.66A31.25,31.25,0,0,0,145,70.61a32.52,32.52,0,0,0,1.7,3.39,35.63,35.63,0,0,0,2.16,3.13,36.36,36.36,0,0,0,2.33,3c.89.93,1.38,2.26,2.32,3.06a36.09,36.09,0,0,0,3.08,2.25c1.06.71,2.45.84,3.56,1.4s2,1.64,3.24,2.06a29.85,29.85,0,0,0,3.69,1,33.88,33.88,0,0,0,3.8.16,35.43,35.43,0,0,0,3.76.44,35.24,35.24,0,0,0,3.75-.5,31.74,31.74,0,0,0,3.7-.64,29.07,29.07,0,0,0,3.58-1.1,31.72,31.72,0,0,0,3.64-1.06,32.77,32.77,0,0,0,3.3-1.87,32.69,32.69,0,0,0,2.94-2.39c.94-.8,1.67-1.86,2.55-2.78s1.92-1.75,2.7-2.75a36,36,0,0,0,2-3.3,33.74,33.74,0,0,0,2.08-3.25,34.71,34.71,0,0,0,1.38-3.6c.39-1.21.2-2.57.45-3.84a34.9,34.9,0,0,0,.78-3.74c.12-1.26.09-2.52.09-3.83s.33-2.6.21-3.86-.08-2.63-.33-3.87-1.32-2.32-1.71-3.53-.29-2.64-.82-3.81a36.4,36.4,0,0,0-2-3.34,37.85,37.85,0,0,0-2.52-2.92c-.77-1-1-2.54-1.85-3.49s-2.37-1.2-3.31-2-1.51-2.21-2.54-2.91a31.22,31.22,0,0,0-3.48-1.59,28.83,28.83,0,0,0-3.55-1.28c-1.17-.42-2.24-1.31-3.48-1.58a34.72,34.72,0,0,0-3.76-.74c-1.23-.12-2.53-.11-3.82-.11a35.29,35.29,0,0,0-3.77.64,31.7,31.7,0,0,0-3.69.74,31.54,31.54,0,0,0-3.66.9,29.22,29.22,0,0,0-3.39,1.62c-1.12.56-2.54.66-3.6,1.37s-1.65,2-2.62,2.81a36.26,36.26,0,0,0-2.89,2.44,34.43,34.43,0,0,0-2.52,2.92,34.66,34.66,0,0,0-1.93,3.33,32.84,32.84,0,0,0-2,3.3,29.92,29.92,0,0,0-1.26,3.63,32.69,32.69,0,0,0-1.14,3.68c-.25,1.24-.23,2.53-.36,3.83S141.85,54.54,141.85,55.85Z"/><path d="M243.62,56.17c0-1.26-.06-2.53,0-3.75s.78-2.45.92-3.67.09-2.51.32-3.72.15-2.54.46-3.73.76-2.4,1.16-3.57.85-2.36,1.33-3.5S249,32,249.6,30.92,251.31,29.06,252,28s1.27-2.1,2-3.11,1-2.34,1.8-3.3,2.07-1.46,2.93-2.37,1.65-1.8,2.57-2.66,1.44-1.92,2.33-2.67,2-1.29,2.92-2,1.73-1.63,2.7-2.27,2-1.3,3-1.88,2-1.2,3.09-1.71,2.31-.6,3.4-1,2.18-.82,3.29-1.2,2.18-.84,3.32-1.15,2.2-.86,3.36-1.1,2.34-.21,3.51-.39,2.28-.56,3.46-.68,2.35.12,3.53.06,2.33-.1,3.52-.1S305.05,0,306.2,0s2.35.36,3.5.48,2.36.17,3.5.35,2.25.77,3.39,1,2.21.76,3.34,1.06,2.47-.08,3.58.3,2.24,1.28,3.32,1.72c.57-.84-1-1.62-.15-2.11,1.61-.89,1.82-.43,3.66-.43s1.84.87,3.67.87,1.84-.84,3.68-.84,1.84.78,3.68.78,1.84-.4,3.68-.4,2.52-1.46,3.82-.16-.5,2-.5,3.81-.12,1.84-.12,3.68.08,1.84.08,3.67.45,1.84.45,3.68.14,1.84.14,3.68-.15,1.84-.15,3.67.15,1.84.15,3.68-.64,1.84-.64,3.68.64,1.84.64,3.68,1.08,2.35-.22,3.65-1.8,0-3.64,0-1.84.29-3.68.29-1.84-.22-3.68-.22-1.83.14-3.67.14-1.84-.16-3.69-.16-2.63,1.54-3.82.14c-1.4-1.64-.23-2.28-.23-4.43s1-2.23.64-4.34c-.93-.74-2.29-1.15-3.27-1.78s-2-1.27-3-1.8a32.15,32.15,0,0,0-3.25-1.27,33.71,33.71,0,0,0-3.32-1,35.06,35.06,0,0,0-3.31-1.16c-1.14-.21-2.33-.06-3.51-.17s-2.29-.19-3.49-.19-2.55-.65-3.78-.54-2.41,1-3.62,1.24-2.59-.06-3.78.29a34.57,34.57,0,0,0-3.37,1.73,34.75,34.75,0,0,0-3.43,1.48c-1.08.61-1.9,1.61-2.93,2.34A36.77,36.77,0,0,0,279.66,32a30.77,30.77,0,0,0-2.32,3A28.37,28.37,0,0,0,275,38a30.53,30.53,0,0,0-2.32,3,30.64,30.64,0,0,0-1.44,3.55,33.25,33.25,0,0,0-.81,3.73c-.24,1.22-.13,2.5-.25,3.8s-.2,2.47-.2,3.77-.58,2.6-.47,3.83a36.39,36.39,0,0,0,.81,3.74,37.46,37.46,0,0,0,.61,3.79,29.8,29.8,0,0,0,1.59,3.49,29.93,29.93,0,0,0,2.08,3.18,28.37,28.37,0,0,0,2.32,3,31.16,31.16,0,0,0,2.49,2.8c.89.84,1.36,2.12,2.29,2.85a33.31,33.31,0,0,0,2.88,2.24c1,.63,2.42.62,3.51,1.12s2,1.48,3.16,1.85a32.16,32.16,0,0,0,3.6.57,34.11,34.11,0,0,0,3.57.46c1.17.11,2.37.62,3.59.62s2.49-.28,3.69-.38,2.52,0,3.71-.25,2.34-.92,3.51-1.24,2.32-.77,3.46-1.21,2.29-.86,3.39-1.41a36.5,36.5,0,0,0,3.35-1.57c1-.65,1.54-1.63,2.51-2.4a13.57,13.57,0,0,0,.58-4c0-2-1.85-2.81-.49-4.32s2.12.53,3.95.53,1.84-.55,3.68-.55,1.84,0,3.68,0,1.84.67,3.67.67,1.85.11,3.69.11,2.64-2.05,4-.76-.12,2.08-.12,3.88S348,78.21,348,80s-.23,1.79-.23,3.59,0,1.8,0,3.6.81,1.87.49,3.64c-.84.9-2.1,1.51-3,2.35s-1.62,1.82-2.51,2.62-1.57,1.93-2.5,2.68-2.27,1-3.25,1.74-1.59,2-2.6,2.64-2.08,1.31-3.13,1.9-2.36.76-3.45,1.27-2.36.62-3.49,1.06-2.1,1.3-3.25,1.66-2.43.28-3.61.58-2.19,1.32-3.39,1.54-2.44.13-3.65.28-2.4.53-3.61.6-2.44-.58-3.66-.58-2.42.64-3.6.59-2.34-1-3.51-1.09-2.49.62-3.66.46-2.3-.86-3.45-1.08-2.27-.81-3.41-1.11-2.49,0-3.62-.35-2.2-1-3.3-1.42-2-1.39-3.07-1.89-2.38-.55-3.42-1.12-1.77-1.67-2.78-2.3-2.22-.94-3.18-1.64-2.05-1.25-3-2-1.42-2-2.29-2.79-2-1.44-2.87-2.32-2.07-1.5-2.84-2.44-1.56-2-2.26-3-.95-2.34-1.58-3.39-1.69-1.89-2.25-3-.3-2.56-.78-3.7-1.29-2.12-1.68-3.29-.84-2.32-1.14-3.52,0-2.5-.2-3.72-.34-2.39-.49-3.62-.84-2.37-.91-3.61S243.62,57.41,243.62,56.17Z"/><path d="M359.12,55.78c0-1.25-.06-2.51,0-3.72s.78-2.43.93-3.64.09-2.49.31-3.69.15-2.52.46-3.71.76-2.38,1.16-3.54.85-2.35,1.33-3.48,1.2-2.18,1.77-3.27,1.71-1.85,2.36-2.9,1.26-2.08,2-3.08,1-2.32,1.79-3.28,2.06-1.44,2.92-2.34,1.64-1.79,2.55-2.65,1.44-1.91,2.33-2.66,2-1.29,2.92-2,1.74-1.62,2.72-2.26,2-1.3,3-1.87,2-1.2,3.09-1.71,2.32-.59,3.41-1,2.18-.81,3.3-1.19,2.18-.83,3.32-1.14,2.21-.85,3.37-1.09,2.34-.2,3.51-.38S410,.6,411.13.49s2.35.12,3.54.06,2.33-.1,3.51-.1,2.38-.5,3.55-.45,2.35.37,3.51.48,2.37.17,3.52.35,2.26.77,3.4,1,2.23.75,3.35,1.05,2.49-.08,3.6.29,2,1.37,3.09,1.81,2.22.77,3.28,1.28,2.3.69,3.33,1.26,1.57,1.93,2.56,2.57,2.42.62,3.36,1.32,1.38,2,2.29,2.79,2,1.22,2.88,2,1.94,1.58,2.78,2.46,1.25,2.19,2,3.13,1.43,2,2.14,3,1.45,2,2.09,3,1.64,1.89,2.21,3,1.22,2.16,1.7,3.29.79,2.34,1.18,3.51.9,2.31,1.21,3.5,0,2.52.19,3.74,1.05,2.31,1.2,3.54,0,2.46.1,3.71.09,2.44.09,3.69.25,2.49.18,3.71-.4,2.46-.54,3.67-.2,2.47-.43,3.67-.66,2.39-1,3.58-.48,2.44-.88,3.6-.68,2.4-1.16,3.53-1.59,2-2.16,3.07-.71,2.43-1.35,3.48-1.39,2-2.11,3-1.34,2.09-2.13,3-1.56,1.92-2.42,2.83-2,1.48-2.91,2.33-1.55,1.82-2.45,2.57-1.87,1.46-2.81,2.15-2.31.79-3.29,1.43-1.6,1.88-2.62,2.46-2.35.58-3.41,1.09-1.93,1.43-3,1.88-2.25.68-3.36,1.06-2.13,1.1-3.27,1.41-2.39.11-3.55.35-2.21.94-3.38,1.12-2.34.28-3.52.39-2.38-.31-3.56-.25-2.33.06-3.52.06-2.36.14-3.52.09-2.39.15-3.54,0-2.36-.3-3.51-.47-2.21-1-3.35-1.25-2.36-.21-3.49-.52-2.16-.95-3.27-1.32-2.29-.54-3.37-1-2.32-.59-3.37-1.11-2.21-.89-3.23-1.47-2-1.25-3-1.9S383,100.33,382,99.63s-1.72-1.57-2.62-2.33-2.21-1-3.08-1.83-1.38-2.12-2.21-3-1.94-1.58-2.72-2.52-1.6-1.89-2.32-2.88-1-2.27-1.66-3.32-1.45-2-2-3.08-.89-2.28-1.38-3.42-1.35-2.1-1.75-3.27-.82-2.33-1.13-3.53-.51-2.41-.74-3.63-.1-2.46-.25-3.69-.85-2.39-.92-3.64S359.12,57,359.12,55.78Zm26.32.07c0,1.31.15,2.55.27,3.8s-.28,2.64,0,3.88a34.89,34.89,0,0,0,1.22,3.66,31.25,31.25,0,0,0,1.72,3.42,32.52,32.52,0,0,0,1.7,3.39,35.63,35.63,0,0,0,2.16,3.13,36.5,36.5,0,0,0,2.34,3c.88.93,1.37,2.26,2.31,3.06a34.71,34.71,0,0,0,3.09,2.25c1,.71,2.44.84,3.55,1.4s2.05,1.64,3.24,2.06a29.85,29.85,0,0,0,3.69,1,33.88,33.88,0,0,0,3.8.16,35.43,35.43,0,0,0,3.76.44A34.9,34.9,0,0,0,422,90a31.74,31.74,0,0,0,3.7-.64,29.07,29.07,0,0,0,3.58-1.1,31.72,31.72,0,0,0,3.64-1.06,32.77,32.77,0,0,0,3.3-1.87,32.69,32.69,0,0,0,2.94-2.39,35.77,35.77,0,0,0,2.55-2.78c.9-1,1.93-1.75,2.7-2.75a36,36,0,0,0,2-3.3,31.91,31.91,0,0,0,2.08-3.25,32.58,32.58,0,0,0,1.38-3.6c.39-1.21.2-2.57.45-3.84a34.9,34.9,0,0,0,.78-3.74c.12-1.26.09-2.52.09-3.83s.33-2.6.21-3.86-.08-2.63-.33-3.87-1.32-2.32-1.71-3.53-.29-2.64-.82-3.81a36.4,36.4,0,0,0-2-3.34,37.85,37.85,0,0,0-2.52-2.92c-.77-1-.95-2.54-1.85-3.49s-2.37-1.2-3.31-2-1.51-2.21-2.54-2.91a31.22,31.22,0,0,0-3.48-1.59,29.28,29.28,0,0,0-3.54-1.28c-1.18-.42-2.25-1.31-3.49-1.58a34.72,34.72,0,0,0-3.76-.74c-1.23-.12-2.53-.11-3.82-.11a35.72,35.72,0,0,0-3.77.64,87.19,87.19,0,0,0-7.35,1.64,29.22,29.22,0,0,0-3.39,1.62c-1.12.56-2.54.66-3.59,1.37s-1.66,2-2.63,2.81a36.26,36.26,0,0,0-2.89,2.44,36.33,36.33,0,0,0-2.52,2.92,34.66,34.66,0,0,0-1.93,3.33,32.84,32.84,0,0,0-2,3.3,29.92,29.92,0,0,0-1.26,3.63,32.69,32.69,0,0,0-1.14,3.68c-.25,1.24-.23,2.53-.36,3.83S385.44,54.54,385.44,55.85Z"/><path d="M520.81,110.52c-1.82,0-1.82.1-3.63.1s-1.81-.6-3.63-.6-1.81.25-3.63.25-1.81.37-3.63.37-1.81-.08-3.63-.08H499c-1.82,0-1.82-.2-3.63-.2s-1.82-.63-3.63-.63-1.82.06-3.64.06-2.47,1.79-3.78.53.57-1.92.57-3.68-.07-1.77-.07-3.53-.45-1.77-.45-3.53.25-1.77.25-3.54-.3-1.77-.3-3.53-1.28-2.48,0-3.69,2-.12,3.91-.12,1.9.44,3.79.44,2.57,1.29,3.94,0-.06-2-.06-3.76-.28-1.81-.28-3.61.25-1.8.25-3.6-.24-1.81-.24-3.61.32-1.8.32-3.61,0-1.8,0-3.6-.54-1.81-.54-3.61.23-1.81.23-3.61-.09-1.8-.09-3.61.39-1.8.39-3.61.24-1.8.24-3.61-.77-1.8-.77-3.61.61-1.81.61-3.61-.16-1.81-.16-3.61-.43-1.81-.43-3.61.87-1.81.87-3.61-.84-1.81-.84-3.62,1.95-2.67.65-3.92S494,24,492.08,24s-1.9.22-3.79.22-2.15.83-3.54-.46.24-1.5.24-3.27-.08-1.76-.08-3.53-.45-1.76-.45-3.53-.14-1.77-.14-3.53.15-1.77.15-3.54-1.35-2.42-.09-3.67,1.92.59,3.7.59,1.79-.65,3.58-.65,1.79.24,3.58.24h3.58c1.79,0,1.79-.29,3.58-.29s1.79.22,3.58.22,1.79-.14,3.58-.14,1.79.16,3.58.16,1.79-.2,3.58-.2,1.8-.18,3.59-.18,1.79.64,3.58.64,1.79-.52,3.58-.52,1.79.06,3.58.06,1.8-.18,3.59-.18,1.8-.06,3.59-.06c1.2,0,2.37.41,3.53.44s2.39-.22,3.53-.17,2.38.19,3.53.28,2.29.91,3.43,1,2.46-.43,3.59-.26,2.24,1,3.36,1.23,2.44,0,3.53.33,2.25.83,3.33,1.2,2.4.46,3.44.91a31.77,31.77,0,0,1,2.94,2,31,31,0,0,1,3.22,1.52,26.3,26.3,0,0,1,2.87,2.6,27.8,27.8,0,0,1,2.06,3.27A26.75,26.75,0,0,1,582.54,20a28.52,28.52,0,0,1,1.67,3.42A34.53,34.53,0,0,1,585.59,27c.29,1.2.5,2.48.69,3.77s-.32,2.55-.24,3.86.43,2.48.43,3.79-.34,2.37-.42,3.52.08,2.4-.07,3.55,0,2.43-.25,3.56-.39,2.41-.75,3.51a31.82,31.82,0,0,1-1.33,3.34c-.48,1.1-1.61,1.85-2.21,2.85a27.72,27.72,0,0,1-2.14,2.78c-.73.93-1,2.24-1.85,3.07s-2.1,1.16-3.05,1.89a29.86,29.86,0,0,1-2.71,2.27,33.07,33.07,0,0,1-3.11,1.71c-1.05.49-2.54,1-3.69,1.38.51,1.71,1.31,1.41,2.36,2.85s.89,1.55,1.94,3,1.43,1.15,2.49,2.59,1.11,1.39,2.17,2.82,1,1.48,2,2.92.34,2.36,2,3.12,2-.57,4-.57,2,.59,3.91.59,2-.59,3.91-.59,2.27-.73,3.72.58.45,1.56.45,3.32,0,1.77,0,3.54-.66,1.76-.66,3.53-.12,1.76-.12,3.53.88,1.77.88,3.54.94,2.38-.28,3.65-1.83-.21-3.53-.21-1.71-.23-3.41-.23-1.71,0-3.41,0-1.71.49-3.41.49-1.71-.52-3.41-.52-1.71.18-3.42.18-1.7.43-3.41.43-1.71-.59-3.42-.59-2.1,1.47-3.62.68-1.21-1.53-2.24-3-.69-1.68-1.72-3.11-.7-1.67-1.73-3.09-1.41-1.15-2.45-2.58-.68-1.68-1.71-3.11-1.67-1-2.71-2.39-.81-1.58-1.84-3S547,89,546,87.62s-.48-1.83-1.51-3.26-1.57-1-2.6-2.46-.34-1.94-1.38-3.37a4.86,4.86,0,0,0-2.61-2.19c-1.53-.8-1.5-.44-3.23-.44s-1.72-.33-3.45-.33-1.72.66-3.45.66S526,76,524.26,76s-2.51-1.6-3.76-.41.4,2,.4,3.58-.59,1.63-.59,3.26.43,1.64.43,3.27-1.06,2.07.18,3.14c1.43,1.23,1.77.54,3.66.54s1.9-.39,3.79-.39,2.74-1.68,4.13-.39.15,2.13.15,3.89-.54,1.77-.54,3.54.52,1.76.52,3.53-.85,1.76-.85,3.53.43,1.77.43,3.54,1.35,2.45.06,3.66-2-.56-3.89-.56-1.9-.06-3.79-.06-1.89.41-3.78.6C520.63,110.27,520.81,110.52,520.81,110.52Zm.24-86.88c-1.28,1.21.22,1.49.22,3.26s-.6,1.77-.6,3.53.25,1.77.25,3.53.36,1.77.36,3.53-.08,1.77-.08,3.53v3.53c0,1.77-.21,1.77-.21,3.54s-.62,1.77-.62,3.54-1.1,2.57.17,3.81,2.09-.48,3.91-.48,1.82.63,3.64.63,1.82-.07,3.65-.07,1.82-.45,3.65-.45,1.82.25,3.65.25c1.27,0,2.48-.33,3.63-.39s2.48-.22,3.61-.36a34.44,34.44,0,0,0,3.55-.69,25.13,25.13,0,0,0,3.6-.68,12.28,12.28,0,0,0,3.18-1.86,12,12,0,0,0,2.18-2.75A14.53,14.53,0,0,0,560,45.32,18.8,18.8,0,0,0,561,42a29.25,29.25,0,0,0,0-3.49,27.89,27.89,0,0,0,.11-3.36,17.35,17.35,0,0,0-.75-3.28,11.19,11.19,0,0,0-1.94-2.71,9,9,0,0,0-2.14-2.41,13.32,13.32,0,0,0-3.1-1.39,21.12,21.12,0,0,0-3.23-1.26c-1.06-.21-2.18-.62-3.41-.75s-2.3.56-3.51.51-2.24-.69-3.45-.69c-1.87,0-1.87.17-3.74.17s-1.87.43-3.74.43-1.87-.87-3.74-.87-2,1.15-3.8.83S522.42,22.35,521.05,23.64Z"/><path d="M604.05,110.42c-1.27-1.22-.2-2-.2-3.79s.59-1.77.59-3.53-.25-1.77-.25-3.53-.36-1.77-.36-3.54.08-1.77.08-3.54-1.17-2.61.13-3.82,2.16.1,4.05.1,1.89.62,3.78.62,2.68,1.15,4-.16-.47-2.08-.47-3.88.64-1.81.64-3.61-.08-1.8-.08-3.61-.44-1.8-.44-3.6.25-1.81.25-3.61-.31-1.8-.31-3.61,0-1.8,0-3.6-.07-1.81-.07-3.61.44-1.81.44-3.61,0-1.8,0-3.61-.13-1.8-.13-3.61-.27-1.81-.27-3.61.25-1.81.25-3.61-.24-1.81-.24-3.61.32-1.81.32-3.61,0-1.81,0-3.61-.53-1.81-.53-3.62,1.58-2.24.27-3.49-1.76.14-3.65.14-1.89-.39-3.79-.39-2.15,1.15-3.54-.14-.65-1.5-.65-3.27.61-1.76.61-3.53-.16-1.76-.16-3.53-.43-1.77-.43-3.53.87-1.77.87-3.54-2-2.57-.73-3.8,2.08.68,3.91.68,1.83-.4,3.66-.4,1.83-.21,3.66-.21,1.83.55,3.67.55,1.83.12,3.66.12,1.83-.08,3.66-.08,1.84-.45,3.67-.45,1.83-.14,3.66-.14,1.84.16,3.67.16,1.83-.15,3.66-.15,1.84.64,3.67.64,1.83-.65,3.67-.65,2.31-1,3.64.22,0,1.73,0,3.5.29,1.76.29,3.53S652,11.6,652,13.37s.14,1.77.14,3.53-.16,1.77-.16,3.54,1.43,2.47.14,3.68-2,.23-3.91.23-1.89-.64-3.78-.64-2.24-.85-3.61.46,0,1.62,0,3.42.18,1.8.18,3.61.06,1.8.06,3.6-.4,1.81-.4,3.61.3,1.8.3,3.6,0,1.81,0,3.61-.71,1.81-.71,3.61.74,1.8.74,3.61-.61,1.8-.61,3.61.48,1.8.48,3.61-.18,1.8-.18,3.61.4,1.8.4,3.61-.49,1.8-.49,3.61.5,1.8.5,3.61,0,1.8,0,3.61-.51,1.81-.51,3.61,0,1.81,0,3.62-1.14,2.36.17,3.61,1.88-.29,3.77-.29,1.89,0,3.78,0,2.16-.76,3.54.53.19,1.5.19,3.26-.31,1.77-.31,3.53.26,1.77.26,3.54.37,1.76.37,3.53.19,1.77.19,3.54,1.09,2.59-.18,3.82-2.1-.56-3.93-.56-1.83-.2-3.66-.2-1.83.67-3.67.67-1.83-.57-3.66-.57-1.83.37-3.66.37-1.83.08-3.67.08-1.83-.46-3.66-.46-1.83.24-3.67.24-1.83-.21-3.66-.21-1.83.46-3.66.46-1.84.07-3.67.07-1.87-.52-3.65-.08C606,110.75,605.38,111.69,604.05,110.42Z"/><path d="M689.51,27.81a17.4,17.4,0,0,1-.28,3.61c-.26,1.2-1.24,2.14-1.8,3.14a11.17,11.17,0,0,1-2,2.93,13.54,13.54,0,0,1-2.64,2.35A13.94,13.94,0,0,1,679.45,41a16.41,16.41,0,0,1-3.5.36,17.06,17.06,0,0,1-3.44-.54c-1.15-.25-2-1.19-3-1.7a11.79,11.79,0,0,1-2.75-1.81c-.85-.76-2-1.2-2.54-2.11s-.4-2.15-.67-3.23a12.14,12.14,0,0,1-.45-3.14,16.4,16.4,0,0,1,0-3.77,18.87,18.87,0,0,1,1.47-3.48,21.66,21.66,0,0,1,1.6-3.44c1-1.36.93-1.38,1.9-2.74S669,14,670,12.63s1.33-1.1,2.3-2.46,1-1.33,2-2.69.87-1.43,1.85-2.79.3-2.16,1.79-2.93,1.72.23,3.35.23,1.64-.24,3.28-.24,1.64.32,3.28.32S690.14.55,690.94,2s-.23,1.74-1,3.39-.93,1.55-1.65,3.2-.63,1.68-1.35,3.32-1.08,1.49-1.8,3.14-1.56,1.52-1.69,3.31c1.13.73,2.76,1.31,3.53,2.22s.94,2.4,1.34,3.6S689.51,26.47,689.51,27.81Z"/><path d="M701.5,56.17c0-1.26-.06-2.53,0-3.75s.78-2.45.93-3.67.09-2.51.31-3.72.15-2.54.46-3.73.76-2.4,1.16-3.57.85-2.36,1.34-3.5,1.2-2.2,1.77-3.31,1.72-1.86,2.37-2.92,1.26-2.1,2-3.11,1-2.34,1.8-3.3,2.08-1.46,2.94-2.37,1.65-1.8,2.56-2.66,1.44-1.92,2.34-2.67,2-1.29,2.91-2,1.73-1.63,2.71-2.27,2-1.3,3-1.88,2-1.2,3.09-1.71,2.31-.6,3.39-1,2.18-.82,3.3-1.2,2.18-.84,3.31-1.15,2.21-.86,3.36-1.1,2.34-.21,3.51-.39,2.29-.56,3.46-.68,2.35.12,3.54.06,2.32-.1,3.51-.1,2.37-.5,3.53-.44,2.34.36,3.5.48,2.35.17,3.5.35,2.25.77,3.38,1,2.22.76,3.34,1.06,2.48-.08,3.58.3,2.25,1.28,3.33,1.72c.57-.84-1-1.62-.15-2.11,1.61-.89,1.81-.43,3.65-.43s1.84.87,3.68.87,1.84-.84,3.68-.84,1.83.78,3.67.78,1.84-.4,3.69-.4,2.51-1.46,3.82-.16-.5,2-.5,3.81-.13,1.84-.13,3.68.08,1.84.08,3.67.45,1.84.45,3.68.14,1.84.14,3.68-.15,1.84-.15,3.67.15,1.84.15,3.68-.64,1.84-.64,3.68.65,1.84.65,3.68,1.08,2.35-.22,3.65-1.81,0-3.65,0-1.84.29-3.67.29-1.84-.22-3.68-.22-1.84.14-3.68.14-1.84-.16-3.68-.16-2.63,1.54-3.83.14c-1.4-1.64-.22-2.28-.22-4.43s1-2.23.64-4.34c-.94-.74-2.3-1.15-3.27-1.78s-2-1.27-3-1.8a31.25,31.25,0,0,0-3.25-1.27A34.39,34.39,0,0,0,772,25a34.28,34.28,0,0,0-3.32-1.16c-1.14-.21-2.32-.06-3.51-.17s-2.29-.19-3.48-.19-2.56-.65-3.78-.54-2.41,1-3.62,1.24-2.6-.06-3.79.29a33.31,33.31,0,0,0-3.36,1.73,34.75,34.75,0,0,0-3.43,1.48A34.12,34.12,0,0,0,740.77,30,35.35,35.35,0,0,0,737.55,32a28,28,0,0,0-2.32,3,27.09,27.09,0,0,0-2.32,3,29.09,29.09,0,0,0-2.32,3,29,29,0,0,0-1.44,3.55,31.17,31.17,0,0,0-.81,3.73,35.8,35.8,0,0,0-.26,3.8c-.11,1.23-.2,2.47-.2,3.77s-.57,2.6-.47,3.83a36.39,36.39,0,0,0,.82,3.74,34.84,34.84,0,0,0,.61,3.79,29.74,29.74,0,0,0,1.58,3.49,30,30,0,0,0,2.09,3.18,28.37,28.37,0,0,0,2.32,3,29.69,29.69,0,0,0,2.49,2.8c.88.84,1.35,2.12,2.29,2.85a31.84,31.84,0,0,0,2.88,2.24c1,.63,2.42.62,3.51,1.12s2,1.48,3.15,1.85a32.53,32.53,0,0,0,3.6.57,34.46,34.46,0,0,0,3.57.46c1.18.11,2.37.62,3.6.62s2.49-.28,3.69-.38,2.51,0,3.7-.25,2.34-.92,3.51-1.24a36.44,36.44,0,0,0,3.47-1.21,35.9,35.9,0,0,0,3.38-1.41A36.69,36.69,0,0,0,781,83.28c1-.65,1.54-1.63,2.51-2.4a13.56,13.56,0,0,0,.57-4c0-2-1.85-2.81-.48-4.32s2.11.53,4,.53,1.84-.55,3.68-.55,1.83,0,3.67,0,1.84.67,3.68.67,1.84.11,3.68.11,2.65-2.05,4-.76-.12,2.08-.12,3.88-.27,1.8-.27,3.6-.22,1.79-.22,3.59,0,1.8,0,3.6.81,1.87.48,3.64c-.83.9-2.09,1.51-2.95,2.35s-1.62,1.82-2.51,2.62-1.56,1.93-2.49,2.68-2.28,1-3.25,1.74-1.59,2-2.61,2.64-2.07,1.31-3.13,1.9-2.35.76-3.44,1.27-2.37.62-3.49,1.06-2.11,1.3-3.26,1.66-2.43.28-3.6.58-2.2,1.32-3.39,1.54-2.45.13-3.66.28-2.39.53-3.61.6-2.44-.58-3.66-.58-2.42.64-3.6.59-2.33-1-3.51-1.09-2.49.62-3.65.46-2.3-.86-3.46-1.08-2.26-.81-3.41-1.11-2.49,0-3.61-.35-2.2-1-3.3-1.42-2-1.39-3.07-1.89-2.38-.55-3.43-1.12-1.77-1.67-2.77-2.3-2.22-.94-3.19-1.64-2-1.25-3-2-1.42-2-2.3-2.79-2-1.44-2.87-2.32-2.07-1.5-2.84-2.44-1.55-2-2.26-3-.94-2.34-1.58-3.39-1.69-1.89-2.24-3-.31-2.56-.78-3.7-1.3-2.12-1.69-3.29-.83-2.32-1.14-3.52,0-2.5-.2-3.72-.34-2.39-.48-3.62-.84-2.37-.91-3.61S701.5,57.41,701.5,56.17Z"/><path d="M817.12,110.42c-1.23-1.15-.21-2-.21-3.64s.6-1.68.6-3.37-.25-1.69-.25-3.38-.37-1.69-.37-3.38S817,95,817,93.27s-1-2.39.11-3.65,1.81.07,3.33.07,1.52.63,3,.63,2,.77,3.27-.13c1.47-1.09.34-2.06,1.09-3.73s1.33-1.41,2.08-3.08.68-1.7,1.43-3.37.34-1.85,1.09-3.52,1-1.56,1.73-3.23.47-1.8,1.22-3.47.71-1.69,1.46-3.36.69-1.7,1.44-3.37,1.15-1.48,1.91-3.15.79-1.66,1.54-3.33.63-1.72,1.39-3.39.5-1.78,1.25-3.45,1-1.57,1.73-3.24.53-1.77,1.28-3.45,1-1.53,1.8-3.2.73-1.68,1.49-3.35.26-1.89,1-3.56,1-1.58,1.71-3.26S854,28,854.8,26.3s3-1.88,1.84-3.32c-1.31-1.63-2.42,1.11-4-.21-1.31-1.05-.63-1.4-.63-3.09s.61-1.69.61-3.37-.17-1.69-.17-3.38S852,11.24,852,9.55s.87-1.69.87-3.39-2-2.51-.72-3.65,2.11.69,4,.69,1.87-.4,3.75-.4,1.87-.21,3.74-.21,1.87.55,3.75.55,1.87.12,3.74.12,1.87-.07,3.74-.07,1.88-.45,3.75-.45,1.87-.14,3.74-.14,1.88.15,3.76.15,2.25-1.11,3.84-.12.21,2,.94,3.56,1.31,1.35,2,3,.51,1.71,1.24,3.32.7,1.62,1.43,3.23,1,1.5,1.72,3.11.52,1.7,1.25,3.31.85,1.56,1.58,3.17.57,1.68,1.3,3.29.91,1.53,1.63,3.14.89,1.54,1.62,3.16.14,1.87.86,3.48,1.21,1.39,1.93,3,.67,1.64,1.39,3.26.89,1.53,1.62,3.14.78,1.59,1.5,3.21.36,1.77,1.09,3.38,1,1.5,1.72,3.11.68,1.63,1.41,3.24.08,1.91.8,3.52,1.4,1.31,2.13,2.93.17,1.86.89,3.48,1.17,1.41,1.89,3,.56,1.69,1.29,3.3S924.27,78.41,925,80s.29,1.81,1,3.43,1.19,1.41,1.91,3-.14,2.07,1.3,3.1c1.23.89,1.3.45,2.82.45h3c1.52,0,2-1.29,3-.16s.29,1.69.29,3.38,0,1.68,0,3.37-.63,1.69-.63,3.38.31,1.69.31,3.38-.31,1.69-.31,3.38,1.52,2.15.29,3.31-1.71.34-3.5.34-1.79.19-3.57.19-1.79-.07-3.57-.07-1.79-.66-3.58-.66-1.79-.2-3.57-.2-1.79.67-3.58.67-1.79-.57-3.57-.57-1.79.37-3.58.37-1.79.08-3.57.08-1.79-.46-3.59-.46-2.17,1.51-3.47.28.25-1.58.25-3.27-.46-1.68-.46-3.37-.07-1.69-.07-3.38.08-1.69.08-3.38S899,95,899,93.27s-1.72-2.52-.47-3.66,2.94,1.84,4.11.4c1-1.24-.28-1.91-1.66-2.73-1.55-.92-1.61-.6-3.41-.6s-1.8.54-3.6.54-1.8,0-3.6,0-1.8-.67-3.6-.67-1.81-.11-3.61-.11-1.8.88-3.6.88-1.81-.24-3.61-.24-1.8-.27-3.6-.27-1.8-.22-3.61-.22-1.8,0-3.6,0-1.8.48-3.61.48-1.8-.51-3.61-.51-2.12-.72-3.68.2c-1.37.82-2,1.61-1,2.86,1.17,1.43,1.91-.85,3.27.4s.64,1.47.64,3.16,0,1.68,0,3.37-.43,1.69-.43,3.38-.41,1.69-.41,3.38.47,1.69.47,3.38.89,2-.33,3.15-1.57.7-3.35.7-1.79-.27-3.57-.27-1.79.29-3.58.29-1.78-.68-3.57-.68-1.79.66-3.58.66-1.78-.86-3.57-.86-1.79.88-3.58.88-1.78-.49-3.57-.49-1.79-.33-3.58-.33-1.76.23-3.5.66C819,111,818.42,111.65,817.12,110.42Zm46.93-44.71c1,1.46,1.45-.26,3.2-.26s1.74.6,3.49.6,1.75-.25,3.5-.25,1.74-.36,3.49-.36,1.75.08,3.5.08h3.5c1.75,0,1.75.21,3.5.21s3,1.93,3.89.4-.81-2.1-1.58-3.83-1.31-1.49-2.08-3.23-.19-2-1-3.72-.84-1.7-1.61-3.43-1.18-1.55-2-3.28-.55-1.83-1.32-3.57-1.05-1.6-1.83-3.34S880,40,879.19,38.28s.49-3.05-1.4-3.28c-1.7-.2-.83,1.22-1.53,2.78s-.74,1.54-1.45,3.09-.59,1.61-1.29,3.17-.45,1.68-1.16,3.23-.93,1.46-1.63,3-.49,1.65-1.19,3.21-1,1.43-1.7,3-.69,1.57-1.39,3.12.06,2-1,3.42S863.1,64.29,864.05,65.71Z"/><path d="M948.58,110.42c-1.27-1.22-.21-2-.21-3.79s.6-1.77.6-3.53-.25-1.77-.25-3.53-.37-1.77-.37-3.54.08-1.77.08-3.54-1.16-2.61.13-3.82,2.16.1,4.05.1,1.89.62,3.79.62,2.67,1.15,4-.16-.46-2.08-.46-3.88.63-1.81.63-3.61-.07-1.8-.07-3.6-.45-1.81-.45-3.61.25-1.8.25-3.61-.31-1.8-.31-3.61,0-1.8,0-3.6-.08-1.81-.08-3.61.45-1.81.45-3.61,0-1.8,0-3.61-.13-1.8-.13-3.61-.27-1.81-.27-3.61.25-1.81.25-3.61-.24-1.81-.24-3.61.32-1.81.32-3.61,0-1.81,0-3.61-.53-1.81-.53-3.62,1.59-2.24.28-3.49-1.77.14-3.66.14-1.89-.39-3.78-.39-2.16,1.15-3.54-.14-.65-1.5-.65-3.27.61-1.76.61-3.53-.17-1.76-.17-3.53-.42-1.77-.42-3.53.86-1.77.86-3.54-2-2.53-.74-3.79,2,.67,3.73.67,1.73-.4,3.46-.4,1.74-.21,3.47-.21,1.73.55,3.46.55,1.74.12,3.47.12,1.74-.07,3.47-.07,1.73-.45,3.47-.45,1.73-.14,3.46-.14,1.74.15,3.47.15,1.74-.15,3.47-.15,1.74.64,3.47.64,1.74-.65,3.48-.65,2-.71,3.45.23.76,1.63,1.56,3.26,1.06,1.51,1.86,3.15.61,1.73,1.4,3.36.93,1.58,1.73,3.22.65,1.71,1.45,3.35,1,1.54,1.78,3.18,1,1.56,1.76,3.2.22,1.92,1,3.56,1.28,1.41,2.07,3,.74,1.67,1.54,3.31,1,1.56,1.77,3.2.85,1.61,1.65,3.25.44,1.82,1.24,3.45,1.07,1.51,1.87,3.15.75,1.66,1.55,3.3.17,2,1,3.6,1.46,1.32,2.26,3-.5,3.71,1.33,3.72.64-2,1.45-3.66,1-1.55,1.76-3.19.45-1.81,1.25-3.45,1.24-1.42,2-3.06.35-1.86,1.15-3.49.85-1.62,1.65-3.26,1.26-1.41,2.07-3,.81-1.63,1.62-3.27.65-1.71,1.45-3.35.55-1.77,1.35-3.41.83-1.62,1.64-3.26,1.37-1.36,2.17-3,.53-1.78,1.33-3.41,1.09-1.51,1.89-3.15.57-1.75,1.38-3.39.47-1.8,1.28-3.44.64-1.73,1.44-3.37.25-2.46,1.81-3.42,2.07.61,3.94.61,1.88.2,3.75.2,1.87-.67,3.74-.67,1.87.56,3.74.56,1.87-.36,3.74-.36,1.88-.08,3.75-.08,1.87.45,3.74.45,1.87-.23,3.74-.23,1.88.21,3.75.21,1.87-.46,3.74-.46,1.88-.07,3.75-.07,2.45-1.18,3.82.1-.29,1.83-.29,3.6.6,1.76.6,3.53-.59,1.77-.59,3.53.59,1.77.59,3.53-.66,1.77-.66,3.54,1.76,2.53.46,3.73-2.07.11-4,.11-1.89-.66-3.78-.66-2.75-1.29-4.12,0,.74,2.15.74,3.95-.25,1.8-.25,3.61-.26,1.8-.26,3.6-.23,1.81-.23,3.61,0,1.8,0,3.61.48,1.8.48,3.6-.52,1.81-.52,3.61.19,1.81.19,3.61.43,1.8.43,3.61-.59,1.8-.59,3.61.73,1.8.73,3.61,0,1.8,0,3.61-.43,1.8-.43,3.61-.41,1.8-.41,3.61.47,1.81.47,3.61-.44,1.81-.44,3.61.8,1.81.8,3.62-1.64,2.22-.33,3.48,1.75-.35,3.64-.35,1.9.68,3.79.68,2.71-1.82,4.1-.53-.71,2.1-.71,3.86.88,1.77.88,3.54-.5,1.76-.5,3.53-.32,1.76-.32,3.53.66,1.77.66,3.54,1,2.37-.27,3.6-1.89-.51-3.72-.51-1.83.54-3.66.54-1.83-.58-3.66-.58-1.83.43-3.66.43-1.83.23-3.67.23-1.83-.58-3.66-.58-1.83.38-3.67.38-1.83.53-3.66.53h-3.66c-1.84,0-1.84-.54-3.67-.54s-1.83.52-3.66.52-1.84-.84-3.67-.84-2.39,1.68-3.71.41-.13-1.81-.13-3.57.61-1.77.61-3.53,0-1.77,0-3.53-.59-1.77-.59-3.54.55-1.77.55-3.54-1.6-2.17-.31-3.38,1.75,0,3.64,0,1.89-.51,3.78-.51,2.11,1.35,3.48.06.73-1.47.73-3.25-.74-1.78-.74-3.56-.07-1.79-.07-3.57.34-1.78.34-3.56-.44-1.79-.44-3.57.64-1.78.64-3.57-.31-1.78-.31-3.57,0-1.78,0-3.56-.1-1.79-.1-3.57,0-1.78,0-3.57.16-1.78.16-3.57-.13-1.78-.13-3.57,1.89-3.23.13-3.56-.79,1.64-1.63,3.27-.53,1.78-1.37,3.41-1.49,1.29-2.33,2.91-.49,1.82-1.33,3.45-.51,1.79-1.34,3.42-.88,1.61-1.72,3.24-.77,1.67-1.61,3.29-1.18,1.46-2,3.09-.76,1.67-1.6,3.3-1.25,1.42-2.09,3-.48,1.81-1.32,3.44-.87,1.62-1.71,3.25-.5,1.8-1.34,3.43-1.25,1.42-2.09,3-1.07,1.51-1.91,3.14-1,1.54-1.86,3.17-.65,1.74-1.49,3.37.23,2.62-1.35,3.57-2,.27-3.82.27-1.86-.94-3.72-.94-1.86.5-3.73.5-2,.77-3.61-.19-1.3-1.27-2.14-2.9,0-2-.87-3.66-1.68-1.2-2.51-2.82,0-2.06-.84-3.68-.94-1.58-1.78-3.21-1.25-1.41-2.08-3-1-1.54-1.84-3.17-.34-1.89-1.18-3.52-1.08-1.5-1.92-3.13-.43-1.83-1.27-3.46-1.11-1.49-2-3.12-.77-1.67-1.6-3.3-1.23-1.42-2.07-3-.86-1.62-1.69-3.25-.27-1.92-1.1-3.55-1.58-1.26-2.41-2.89-.6-1.76-1.44-3.39.33-3.62-1.47-3.3.11,1.72.11,3.5-.07,1.78-.07,3.57-.3,1.78-.3,3.56-.19,1.78-.19,3.57.24,1.78.24,3.56.26,1.79.26,3.57.1,1.78.1,3.57.32,1.78.32,3.57-.72,1.78-.72,3.56.57,1.79.57,3.57,0,1.78,0,3.57-.33,1.79-.33,3.57-1.42,2.44-.12,3.67,2,0,3.86,0h3.79c1.89,0,2.49-1.42,3.88-.13s-.38,1.86-.38,3.62.66,1.77.66,3.54-.76,1.76-.76,3.53.42,1.76.42,3.53-.19,1.77-.19,3.54,1.4,2.28.13,3.51-1.81.36-3.64.36-1.83-.59-3.66-.59-1.83-.18-3.66-.18-1.83.55-3.66.55-1.83.38-3.67.38-1.83-.64-3.66-.64-1.83,0-3.67,0-1.83-.31-3.66-.31-1.83.62-3.67.62-1.83.21-3.66.21-1.83-.81-3.67-.81-1.79.44-3.57.88C950.56,111.06,949.9,111.69,948.58,110.42Z"/><path d="M1107,110.42c-1.28-1.22-.21-2-.21-3.79s.6-1.77.6-3.53-.26-1.77-.26-3.53-.36-1.77-.36-3.54.08-1.77.08-3.54-1.16-2.61.13-3.82,2.16.1,4,.1,1.89.62,3.78.62,2.68,1.15,4.05-.16-.47-2.08-.47-3.88.64-1.81.64-3.61-.07-1.8-.07-3.6-.45-1.81-.45-3.61.25-1.8.25-3.61-.31-1.8-.31-3.61,0-1.8,0-3.6-.07-1.81-.07-3.61.45-1.81.45-3.61,0-1.8,0-3.61-.13-1.8-.13-3.61-.27-1.81-.27-3.61.25-1.81.25-3.61-.24-1.81-.24-3.61.32-1.81.32-3.61,0-1.81,0-3.61-.53-1.81-.53-3.62,1.58-2.24.28-3.49-1.77.14-3.66.14-1.89-.39-3.79-.39-2.15,1.15-3.53-.14-.65-1.5-.65-3.27.61-1.76.61-3.53-.17-1.76-.17-3.53-.43-1.77-.43-3.53.87-1.77.87-3.54-2-2.56-.73-3.8,2.06.68,3.88.68,1.81-.4,3.63-.4,1.81-.21,3.62-.21,1.82.55,3.64.55,1.81.12,3.62.12,1.82-.07,3.64-.07,1.81-.45,3.63-.45,1.81-.14,3.63-.14,1.82.15,3.63.15,1.82-.15,3.64-.15,1.81.64,3.63.64,1.81-.65,3.63-.65,1.82.24,3.64.24h3.64c1.22,0,2.42-.27,3.59-.24s2.41.3,3.58.37,2.42,0,3.59.13,2.39.42,3.54.57,2.43.15,3.58.36,2.43.3,3.56.58,2.18,1.21,3.29,1.56,2.48.25,3.56.68,2.22,1,3.27,1.52a36,36,0,0,1,3.23,1.61,30.85,30.85,0,0,1,3,2.07,29.43,29.43,0,0,1,2.43,2.79,29,29,0,0,1,2.58,2.62,30.44,30.44,0,0,1,2,3.13c.59,1.05.48,2.44,1,3.58s1.56,2,1.92,3.18.06,2.47.31,3.69.91,2.28,1.07,3.52.08,2.42.15,3.66.5,2.41.5,3.66-.52,2.44-.59,3.62.31,2.51.16,3.68-.41,2.45-.66,3.61a36.78,36.78,0,0,1-1.42,3.4,32.34,32.34,0,0,1-1.28,3.38,28.29,28.29,0,0,1-1.49,3.3,29.87,29.87,0,0,1-1.8,3.19,29,29,0,0,1-2.46,2.73c-.85.84-2.18,1.16-3.15,1.9a29.29,29.29,0,0,1-2.71,2.21c-1,.6-2.14.87-3.22,1.39s-2,1.19-3.11,1.62-2.06,1.14-3.21,1.48-2.19.83-3.36,1.11-2.29.45-3.47.67-2.39-.27-3.58-.11-2.31.09-3.5.2-2.25.87-3.45.94-2.34-.45-3.53-.42-2.31.42-3.51.42c-1.86,0-1.86.07-3.71.07s-1.86-.45-3.71-.45-1.86.24-3.72.24-2.79-1.5-4-.09c-1.41,1.67.38,2.42.38,4.61s-1.4,2.61,0,4.26c1.24,1.43,1.76,0,3.65,0s1.89.32,3.78.32,2.66-1.79,4-.5-.46,2-.46,3.8.58,1.77.58,3.54-.65,1.76-.65,3.53.54,1.76.54,3.53,0,1.77,0,3.54.72,2-.55,3.28-1.58-.22-3.41-.22-1.83.88-3.66.88-1.84-.24-3.67-.24-1.83-.26-3.66-.26-1.83-.23-3.67-.23-1.83,0-3.66,0-1.83.49-3.67.49-1.83-.52-3.66-.52-1.83.18-3.67.18-1.83.43-3.66.43-1.83-.59-3.67-.59-1.78.28-3.57.72C1109,111.08,1108.36,111.69,1107,110.42Zm36.82-51.2c1.14,1.23,1.41-.22,3.08-.22s1.68.6,3.36.6,1.68-.25,3.35-.25,1.69-.36,3.37-.36,1.68.08,3.36.08c1.26,0,2.44,0,3.59-.11s2.47,0,3.59-.18c1.28-.21,2.61.14,3.69-.18a18.69,18.69,0,0,0,3.4-1.45c1.13-.62,1.75-1.82,2.52-2.66s2.1-1.6,2.71-2.75a18.56,18.56,0,0,0,1.35-3.63,27,27,0,0,0,.28-3.83,31,31,0,0,0,.46-3.78,23.43,23.43,0,0,0-.58-3.74,16.69,16.69,0,0,0-1-3.59,12.47,12.47,0,0,0-1.88-3.17,12,12,0,0,0-2.45-2.86,17.46,17.46,0,0,0-3.36-1.78,28.08,28.08,0,0,0-3.66-1c-1.15-.27-2.43-.21-3.74-.38s-2.41-.52-3.73-.59-2.46.14-3.77.14c-1.77,0-1.77-.32-3.55-.32s-1.78,0-3.55,0-1.78.53-3.56.53-2.18-1.54-3.44-.28.15,1.68.15,3.49-.39,1.8-.39,3.6-.25,1.81-.25,3.61.77,1.81.77,3.61-.61,1.81-.61,3.61.17,1.8.17,3.61.42,1.8.42,3.61-.86,1.8-.86,3.61,1.14,1.89.83,3.67S1142.63,57.89,1143.86,59.22Z"/></svg>