<svg xmlns="http://www.w3.org/2000/svg" viewBox="0 0 618.41 628.04"><title>Fichier 3</title><g id="f858e3fb-5ea3-4a59-8474-2cbe44736ab9" data-name="Calque 2"><g id="f5fedfb3-00dd-409c-a233-5a1d609517ae" data-name="Calque 1"><path d="M330.48,90.3l44.67-67.43-13-8.62-36,54.35V14.68H310.53V57.44L275.66,0,262.32,8.1l48.21,79.41v4.64L0,560.87,158.12,628h77.3l.73-7a500,500,0,0,1,12.39-66.92c10.56-39.72,24.6-62.84,38.49-63.45S315.9,512.8,328.53,553c10.56,33.61,15.9,68.05,16,68.39l1,6.62h73.69l199.23-63.36Zm264.3,465.52-170.72,54.3-46.7-255.88,34.94-26.61,48.78,7.9ZM450.43,318l-42.26-6.84L374.23,337,336.5,130.28ZM317,110.61l0-.16h.13l-.1.16,42,230L308.34,328.9,243,337.15l50.91-191.6ZM267,186.22,228.38,331.35l-20-19.76H183.88ZM154.47,609.54l-131.1-55.7L173.54,327.2H202l21.82,21.53Zm204.33,2.9a534.29,534.29,0,0,0-15.33-63.94c-6.51-20.74-13.68-37.29-21.32-49.19-10.7-16.64-22.72-24.8-35.8-24.23-22.13,1-39.94,26.28-52.93,75.21a508.64,508.64,0,0,0-12,62.15H169.83l68.82-259,68.88-8.71,54.54,12.64,46.54,255.07Z"/><polygon points="317.14 110.45 317.04 110.61 317.01 110.45 317.14 110.45"/><path d="M317,110.45l0,.16.1-.16Z"/></g></g></svg>