<svg xmlns="http://www.w3.org/2000/svg" viewBox="0 0 692.42 628.05"><title>Fichier 7</title><g id="a3e6c8bb-d345-4ca9-9c7b-14a30c4d496d" data-name="Calque 2"><g id="ff56b08e-f339-4f75-bf3b-8b2e1f136380" data-name="Calque 1"><path d="M638.84,200.84,346.21,0,53.57,200.84,0,628.05H692.42ZM338.12,611.05H19.27L69.49,210.53,338.12,26.17Zm17,0V300.74L522.06,611.05Zm0-346.18V26.74l267.8,183.79,50.23,400.52H541.36Z"/><path d="M107.19,274.49V463.73H296.43V274.49Zm174.24,15v71.67l-.32,0c-32.86-5.16-57.23-49.55-67.44-71.63Zm-72.12,24.58c9,16.06,21.94,34.78,38.33,47.52H209.31Zm-87.12-24.58h67.44c-10.21,22.08-34.58,66.47-67.44,71.63Zm0,159.24V389.07c9.64,13.73,22.05,35.64,24.19,59.66Zm72.12,0H161.44c-2.29-30.47-18.57-57.18-29.69-72.14h62.56Zm0-87.14H155.66c16.58-12.9,29.62-31.91,38.65-48.1Zm15,87.14V376.59h62.24c-11.12,15-27.4,41.67-29.69,72.14Zm72.12,0H256.92c2.14-24,14.55-45.93,24.19-59.66l.32-.45Z"/></g></g></svg>